<?xml version="1.0" encoding="utf-8"?>
<!-- Generator: Adobe Illustrator 15.1.0, SVG Export Plug-In . SVG Version: 6.00 Build 0)  -->
<!DOCTYPE svg PUBLIC "-//W3C//DTD SVG 1.1//EN" "http://www.w3.org/Graphics/SVG/1.1/DTD/svg11.dtd">
<svg version="1.1" id="Layer_1" xmlns="http://www.w3.org/2000/svg" xmlns:xlink="http://www.w3.org/1999/xlink" x="0px" y="0px"
	 width="70px" height="60px" viewBox="0 0 70 60" enable-background="new 0 0 70 60" xml:space="preserve">
<rect fill="#FFFFFF" width="70" height="60"/>
<g>
	<path fill="#87DB60" d="M16.43,27.176c1.348,6.235,5.65,10.521,10.673,10.521c5.026,0,9.332-4.294,10.676-10.539
		c2.692-0.998,4.248-4.126,3.867-6.624c-0.234-1.539-1.16-2.565-2.481-2.866C38.76,11.305,33.512,6.25,27.103,6.25
		c-6.291,0-11.472,4.866-12.046,11.061c-1.438,0.342-2.431,1.491-2.635,3.185C12.112,23.07,13.668,26.218,16.43,27.176z
		 M17.5,18.455c0-5.352,4.308-9.705,9.604-9.705c5.294,0,9.602,4.354,9.602,9.705c0,0.154-0.004,0.309-0.014,0.47
		c-5.108,0.628-10.09-1.085-13.25-4.52c-0.238-0.259-0.573-0.403-0.92-0.403c-0.05,0-0.1,0.003-0.15,0.009
		c-0.399,0.048-0.751,0.286-0.945,0.638c-0.641,1.164-2.337,3.144-3.926,3.854C17.5,18.487,17.5,18.471,17.5,18.455z M14.904,20.794
		c0.037-0.307,0.117-0.524,0.22-0.688c0.004,0.03,0.005,0.056,0.01,0.086c0.085,0.601,0.591,1.053,1.198,1.073
		c0.013,0,0.118,0.002,0.131,0.002c2.475,0,4.872-2.247,6.259-4.068c3.127,2.785,7.358,4.356,11.843,4.356
		c1.154,0,2.327-0.104,3.485-0.309c0.46-0.081,0.816-0.417,0.957-0.851c0.075,0.125,0.133,0.29,0.167,0.514
		c0.208,1.366-0.764,3.667-2.703,4.023c-0.516,0.095-0.917,0.501-1.006,1.019c-0.917,5.356-4.434,9.244-8.363,9.244
		c-3.93,0-7.448-3.888-8.364-9.244c-0.09-0.527-0.505-0.938-1.033-1.023C15.761,24.615,14.731,22.232,14.904,20.794z"/>
	<path fill="#87DB60" d="M37.261,37.999c-0.419-0.206-0.805-0.395-1.146-0.577c-0.326-0.175-0.713-0.196-1.055-0.059
		c-0.343,0.137-0.608,0.42-0.723,0.771c-1.177,3.596-4.971,4.901-7.234,4.901s-6.057-1.305-7.235-4.901
		c-0.115-0.352-0.38-0.634-0.723-0.771c-0.342-0.137-0.729-0.116-1.055,0.059c-0.341,0.183-0.727,0.372-1.146,0.577
		c-3.587,1.761-9.59,4.708-11.769,14.222c-0.154,0.673,0.266,1.343,0.939,1.497c0.671,0.156,1.343-0.267,1.497-0.939
		c1.913-8.353,7.041-10.87,10.434-12.536c0.002-0.001,0.004-0.002,0.006-0.003c1.819,3.482,5.75,5.295,9.051,5.295
		s7.232-1.813,9.05-5.295c0.002,0.001,0.004,0.002,0.006,0.003c3.393,1.666,8.521,4.183,10.434,12.536
		c0.132,0.579,0.647,0.972,1.217,0.972c0.092,0,0.186-0.011,0.28-0.032c0.673-0.154,1.094-0.824,0.939-1.497
		C46.851,42.706,40.848,39.759,37.261,37.999z"/>
	<path fill="#87DB60" d="M60.821,12.635H44.957c-0.69,0-1.25,0.56-1.25,1.25s0.56,1.25,1.25,1.25h15.864
		c0.847,0,1.535,0.689,1.535,1.536v27.34c0,0.847-0.688,1.535-1.535,1.535h-7.774c-0.69,0-1.25,0.56-1.25,1.25s0.56,1.25,1.25,1.25
		h7.774c2.225,0,4.035-1.81,4.035-4.035v-27.34C64.856,14.446,63.046,12.635,60.821,12.635z"/>
	<path fill="#87DB60" d="M46.575,21.778h11.368c0.69,0,1.25-0.56,1.25-1.25s-0.56-1.25-1.25-1.25H46.575
		c-0.69,0-1.25,0.56-1.25,1.25S45.884,21.778,46.575,21.778z"/>
	<path fill="#87DB60" d="M46.575,28.408h11.368c0.69,0,1.25-0.56,1.25-1.25s-0.56-1.25-1.25-1.25H46.575
		c-0.69,0-1.25,0.56-1.25,1.25S45.884,28.408,46.575,28.408z"/>
	<path fill="#87DB60" d="M46.575,35.037h11.368c0.69,0,1.25-0.56,1.25-1.25s-0.56-1.25-1.25-1.25H46.575
		c-0.69,0-1.25,0.56-1.25,1.25S45.884,35.037,46.575,35.037z"/>
	<path fill="#87DB60" d="M59.193,40.416c0-0.69-0.56-1.25-1.25-1.25H50.62c-0.69,0-1.25,0.56-1.25,1.25s0.56,1.25,1.25,1.25h7.323
		C58.633,41.666,59.193,41.106,59.193,40.416z"/>
</g>
</svg>
