<?xml version="1.0" encoding="utf-8"?>
<!-- Generator: Adobe Illustrator 15.1.0, SVG Export Plug-In . SVG Version: 6.00 Build 0)  -->
<!DOCTYPE svg PUBLIC "-//W3C//DTD SVG 1.1//EN" "http://www.w3.org/Graphics/SVG/1.1/DTD/svg11.dtd">
<svg version="1.1" id="Layer_1" xmlns="http://www.w3.org/2000/svg" xmlns:xlink="http://www.w3.org/1999/xlink" x="0px" y="0px"
	 width="70px" height="60px" viewBox="0 0 70 60" enable-background="new 0 0 70 60" xml:space="preserve">
<rect fill="#FFFFFF" width="70" height="60"/>
<g>
	<path fill="#87DB60" d="M44.701,37.965c-1.054-1.053-2.128-1.273-2.844-1.273c-1.065,0-2.128,0.477-2.995,1.343l-3.199,3.199
		c-2.089-0.737-5.008-2.685-7.109-4.786c-2.102-2.101-4.049-5.02-4.786-7.109l3.2-3.2c1.47-1.471,2.061-3.847,0.068-5.839
		L21.1,14.366c-1.618-1.618-4.177-1.594-5.839,0.069l-1.883,1.882c-1.659,1.658-2.292,3.095-2.416,5.492
		c-0.467,9.033,6.125,18.163,10.094,22.134c5.035,5.036,13.553,10.118,21.231,10.118c0.301,0,0.603-0.008,0.903-0.023
		c2.395-0.124,3.833-0.756,5.493-2.416l1.882-1.884c1.711-1.71,1.74-4.166,0.069-5.839L44.701,37.965z M48.798,47.971l-1.882,1.884
		c-1.231,1.231-2.06,1.593-3.854,1.686c-7.197,0.372-15.394-4.521-20.237-9.366c-4.768-4.77-9.732-13.138-9.365-20.237
		c0.093-1.794,0.455-2.622,1.686-3.853l1.883-1.883c0.376-0.375,0.794-0.574,1.208-0.574c0.386,0,0.765,0.175,1.096,0.505
		l5.934,5.934c0.741,0.742,0.718,1.517-0.068,2.304l-3.727,3.727c-0.309,0.309-0.434,0.755-0.331,1.179
		c0.728,2.992,3.436,6.73,5.644,8.938c2.208,2.207,5.946,4.915,8.938,5.644c0.424,0.103,0.871-0.022,1.18-0.33l3.727-3.727
		c0.739-0.739,1.547-0.824,2.303-0.07l5.935,5.935C49.566,46.367,49.541,47.229,48.798,47.971z"/>
	<path fill="#87DB60" d="M32.977,12.5c-0.676,0.142-1.109,0.804-0.967,1.48s0.806,1.107,1.48,0.967
		c4.648-0.974,9.418,0.446,12.768,3.796c3.29,3.291,4.725,7.986,3.839,12.559c-0.131,0.678,0.312,1.334,0.989,1.465
		c0.081,0.016,0.16,0.023,0.239,0.023c0.586,0,1.11-0.415,1.226-1.012c1.044-5.39-0.648-10.923-4.526-14.802
		C44.076,13.025,38.45,11.352,32.977,12.5z"/>
	<path fill="#87DB60" d="M52.414,12.583c-5.432-5.431-13.171-7.736-20.701-6.164c-0.676,0.141-1.109,0.803-0.968,1.479
		c0.142,0.677,0.807,1.109,1.479,0.968c6.702-1.396,13.589,0.652,18.422,5.484c4.71,4.711,6.792,11.439,5.57,17.998
		c-0.126,0.679,0.321,1.332,1,1.458c0.077,0.014,0.154,0.021,0.23,0.021c0.59,0,1.115-0.42,1.228-1.021
		C60.047,25.438,57.707,17.878,52.414,12.583z"/>
	<path fill="#87DB60" d="M44.598,31.505c0.081,0.016,0.16,0.023,0.239,0.023c0.586,0,1.11-0.415,1.226-1.012
		c0.625-3.23-0.388-6.544-2.711-8.867c-2.37-2.371-5.745-3.371-9.03-2.678c-0.675,0.143-1.107,0.806-0.965,1.481
		c0.143,0.676,0.806,1.102,1.481,0.965c2.455-0.518,4.976,0.229,6.746,2c1.735,1.734,2.492,4.21,2.025,6.623
		C43.477,30.718,43.92,31.374,44.598,31.505z"/>
</g>
</svg>
