<?xml version="1.0" encoding="utf-8"?>
<!-- Generator: Adobe Illustrator 15.1.0, SVG Export Plug-In . SVG Version: 6.00 Build 0)  -->
<!DOCTYPE svg PUBLIC "-//W3C//DTD SVG 1.1//EN" "http://www.w3.org/Graphics/SVG/1.1/DTD/svg11.dtd">
<svg version="1.1" id="Layer_1" xmlns="http://www.w3.org/2000/svg" xmlns:xlink="http://www.w3.org/1999/xlink" x="0px" y="0px"
	 width="70px" height="60px" viewBox="0 0 70 60" enable-background="new 0 0 70 60" xml:space="preserve">
<rect fill="#FFFFFF" width="70" height="60"/>
<g>
	<path fill="#87DB60" d="M68.75,8.868c-5.979,0-7.559,5.023-7.559,7.68v12.963c0,0.69,0.56,1.25,1.25,1.25H67.5v18.168
		c0,0.69,0.56,1.25,1.25,1.25s1.25-0.56,1.25-1.25V10.118C70,9.428,69.44,8.868,68.75,8.868z M67.5,28.261h-3.809V16.548
		c0-0.192,0.047-4.312,3.809-5.063V28.261z"/>
	<path fill="#87DB60" d="M13.87,8.868c-0.69,0-1.25,0.56-1.25,1.25v10.714c0,2.79-2.27,5.059-5.06,5.059
		c-2.791,0-5.061-2.27-5.061-5.059V10.118c0-0.69-0.56-1.25-1.25-1.25S0,9.428,0,10.118v10.714c0,3.741,2.736,6.848,6.311,7.447
		v20.649c0,0.69,0.56,1.25,1.25,1.25s1.25-0.56,1.25-1.25V28.279c3.574-0.599,6.31-3.706,6.31-7.447V10.118
		C15.12,9.428,14.561,8.868,13.87,8.868z"/>
	<path fill="#87DB60" d="M5.457,21.368c0.69,0,1.25-0.56,1.25-1.25v-10c0-0.69-0.56-1.25-1.25-1.25s-1.25,0.56-1.25,1.25v10
		C4.207,20.809,4.767,21.368,5.457,21.368z"/>
	<path fill="#87DB60" d="M9.663,21.368c0.69,0,1.25-0.56,1.25-1.25v-10c0-0.69-0.56-1.25-1.25-1.25s-1.25,0.56-1.25,1.25v10
		C8.413,20.809,8.973,21.368,9.663,21.368z"/>
	<path fill="#87DB60" d="M37.203,10.298c-11.257,0-20.416,9.159-20.416,20.416c0,11.258,9.159,20.418,20.416,20.418
		c11.258,0,20.417-9.16,20.417-20.418C57.62,19.457,48.461,10.298,37.203,10.298z M37.203,48.632
		c-9.879,0-17.916-8.038-17.916-17.918c0-9.879,8.037-17.916,17.916-17.916c9.879,0,17.917,8.037,17.917,17.916
		C55.12,40.594,47.083,48.632,37.203,48.632z"/>
	<path fill="#87DB60" d="M37.203,19.183c-6.358,0-11.531,5.173-11.531,11.531s5.173,11.531,11.531,11.531
		s11.531-5.173,11.531-11.531S43.562,19.183,37.203,19.183z M37.203,39.745c-4.98,0-9.031-4.051-9.031-9.031
		s4.051-9.031,9.031-9.031s9.031,4.051,9.031,9.031S42.183,39.745,37.203,39.745z"/>
</g>
</svg>
