<?xml version="1.0" encoding="utf-8"?>
<!-- Generator: Adobe Illustrator 15.1.0, SVG Export Plug-In . SVG Version: 6.00 Build 0)  -->
<!DOCTYPE svg PUBLIC "-//W3C//DTD SVG 1.1//EN" "http://www.w3.org/Graphics/SVG/1.1/DTD/svg11.dtd">
<svg version="1.1" id="Layer_1" xmlns="http://www.w3.org/2000/svg" xmlns:xlink="http://www.w3.org/1999/xlink" x="0px" y="0px"
	 width="29px" height="22px" viewBox="0 0 29 22" enable-background="new 0 0 29 22" xml:space="preserve">
<g>
	<path fill="#87DB60" d="M27.441,0C24.133,0,1.25,0,1.25,0C0.56,0,0,0.557,0,1.25C0,1.939,0.56,2.5,1.25,2.5h3.538l4.436,11.523
		c0.19,0.496,0.664,0.8,1.167,0.8h11.811c0.642,0,1.035-0.404,1.224-0.905c0.47-1.259,3.973-10.595,4.769-12.652
		C28.435,0.643,28.035,0,27.441,0z M10.367,14.761l0.014,0.035C10.36,14.788,10.355,14.775,10.367,14.761z"/>
	<circle fill="#87DB60" cx="20.89" cy="19.068" r="2.25"/>
	<circle fill="#87DB60" cx="11.451" cy="19.068" r="2.25"/>
</g>
</svg>
