<?xml version="1.0" encoding="utf-8"?>
<!-- Generator: Adobe Illustrator 15.1.0, SVG Export Plug-In . SVG Version: 6.00 Build 0)  -->
<!DOCTYPE svg PUBLIC "-//W3C//DTD SVG 1.1//EN" "http://www.w3.org/Graphics/SVG/1.1/DTD/svg11.dtd">
<svg version="1.1" id="Layer_1" xmlns="http://www.w3.org/2000/svg" xmlns:xlink="http://www.w3.org/1999/xlink" x="0px" y="0px"
	 width="27px" height="22px" viewBox="0 0 27 22" enable-background="new 0 0 27 22" xml:space="preserve">
<g>
	<path fill="#87DB60" d="M25.609,5.01c-2.059,0-17.176,0-17.176,0l-1.62-4.209C6.628,0.318,6.164,0,5.646,0H1.25
		C0.56,0,0,0.557,0,1.25C0,1.939,0.56,2.5,1.25,2.5h3.538l4.436,11.523c0.19,0.496,0.664,0.8,1.167,0.8h11.811
		c0.641,0,1.035-0.405,1.223-0.906c0.471-1.258,2.143-5.584,2.938-7.643C26.603,5.652,26.203,5.01,25.609,5.01z M10.369,14.759
		l0.013,0.039C10.359,14.788,10.354,14.775,10.369,14.759z"/>
	<circle fill="#87DB60" cx="20.89" cy="19.068" r="2.25"/>
	<circle fill="#87DB60" cx="11.451" cy="19.068" r="2.25"/>
</g>
</svg>
