<?xml version="1.0" encoding="utf-8"?>
<!-- Generator: Adobe Illustrator 15.1.0, SVG Export Plug-In . SVG Version: 6.00 Build 0)  -->
<!DOCTYPE svg PUBLIC "-//W3C//DTD SVG 1.1//EN" "http://www.w3.org/Graphics/SVG/1.1/DTD/svg11.dtd">
<svg version="1.1" id="Layer_1" xmlns="http://www.w3.org/2000/svg" xmlns:xlink="http://www.w3.org/1999/xlink" x="0px" y="0px"
	 width="25px" height="25px" viewBox="0 0 25 25" enable-background="new 0 0 25 25" xml:space="preserve">
<g>
	<path fill="#DD5044" d="M21.34,3.66c-4.879-4.88-12.799-4.881-17.679,0c-4.883,4.883-4.879,12.8,0,17.679
		c4.88,4.882,12.796,4.882,17.679,0C26.22,16.458,26.221,8.541,21.34,3.66z"/>
	<path fill="#FFFFFF" d="M13.915,12.499l2.828-2.828c0.391-0.391,0.391-1.023,0-1.414s-1.023-0.391-1.414,0l-2.828,2.828
		L9.673,8.257c-0.391-0.391-1.023-0.391-1.414,0s-0.391,1.023,0,1.414l2.828,2.828l-2.828,2.828c-0.391,0.391-0.391,1.023,0,1.414
		c0.195,0.195,0.451,0.293,0.707,0.293s0.512-0.098,0.707-0.293l2.828-2.828l2.828,2.828c0.195,0.195,0.451,0.293,0.707,0.293
		s0.512-0.098,0.707-0.293c0.391-0.391,0.391-1.023,0-1.414L13.915,12.499z"/>
</g>
</svg>
