<?xml version="1.0" encoding="utf-8"?>
<!-- Generator: Adobe Illustrator 15.1.0, SVG Export Plug-In . SVG Version: 6.00 Build 0)  -->
<!DOCTYPE svg PUBLIC "-//W3C//DTD SVG 1.1//EN" "http://www.w3.org/Graphics/SVG/1.1/DTD/svg11.dtd">
<svg version="1.1" id="Layer_1" xmlns="http://www.w3.org/2000/svg" xmlns:xlink="http://www.w3.org/1999/xlink" x="0px" y="0px"
	 width="25px" height="25px" viewBox="0 0 25 25" enable-background="new 0 0 25 25" xml:space="preserve">
<g>
	<g>
		<g>
			<path fill="#87DB60" d="M21.339,3.66c-4.88-4.879-12.798-4.881-17.679,0c-4.883,4.883-4.879,12.8,0,17.68
				c4.882,4.881,12.797,4.881,17.679,0C26.22,16.458,26.221,8.542,21.339,3.66z"/>
		</g>
	</g>
	<path fill="#FFFFFF" d="M18.866,9.468l-3.333-3.331c-0.293-0.293-0.768-0.293-1.061,0l-6.945,6.946
		c-0.063,0.063-0.109,0.14-0.146,0.221c-0.011,0.023-0.019,0.046-0.026,0.07c-0.009,0.025-0.023,0.05-0.029,0.076l-0.95,4.284
		c-0.055,0.251,0.021,0.512,0.202,0.693c0.142,0.142,0.333,0.22,0.53,0.22c0.054,0,0.109-0.006,0.163-0.019l4.284-0.952
		c0.026-0.006,0.05-0.02,0.075-0.028c0.025-0.008,0.048-0.016,0.072-0.026c0.081-0.037,0.157-0.083,0.22-0.146l6.944-6.947
		c0.141-0.141,0.22-0.332,0.22-0.53C19.085,9.799,19.006,9.608,18.866,9.468z M8.236,14.646l2.122,2.12l-2.727,0.606L8.236,14.646z
		 M11.458,15.885l-2.34-2.339l6.057-6.059l2.339,2.338L11.458,15.885z"/>
</g>
</svg>
