<?xml version="1.0" encoding="utf-8"?>
<!-- Generator: Adobe Illustrator 15.1.0, SVG Export Plug-In . SVG Version: 6.00 Build 0)  -->
<!DOCTYPE svg PUBLIC "-//W3C//DTD SVG 1.1//EN" "http://www.w3.org/Graphics/SVG/1.1/DTD/svg11.dtd">
<svg version="1.1" id="Layer_1" xmlns="http://www.w3.org/2000/svg" xmlns:xlink="http://www.w3.org/1999/xlink" x="0px" y="0px"
	 width="22px" height="20px" viewBox="0 0 22 20" enable-background="new 0 0 22 20" xml:space="preserve">
<path fill="#D9D9D9" d="M17.131,20c-0.084,0-0.17-0.023-0.248-0.064L11,16.83l-5.884,3.105c-0.181,0.098-0.397,0.08-0.562-0.041
	c-0.164-0.119-0.246-0.32-0.212-0.521l1.123-6.582l-4.76-4.66C0.561,7.992,0.509,7.779,0.571,7.582C0.634,7.389,0.801,7.25,1,7.221
	l6.58-0.963l2.941-5.984c0.181-0.365,0.776-0.365,0.956,0l2.942,5.984l6.578,0.963c0.202,0.029,0.369,0.168,0.431,0.361
	c0.063,0.197,0.01,0.41-0.136,0.549l-4.758,4.66l1.123,6.582c0.034,0.201-0.048,0.402-0.213,0.521
	C17.352,19.965,17.242,20,17.131,20z"/>
</svg>
