<?xml version="1.0" encoding="utf-8"?>
<!-- Generator: Adobe Illustrator 15.1.0, SVG Export Plug-In . SVG Version: 6.00 Build 0)  -->
<!DOCTYPE svg PUBLIC "-//W3C//DTD SVG 1.1//EN" "http://www.w3.org/Graphics/SVG/1.1/DTD/svg11.dtd">
<svg version="1.1" id="Layer_1" xmlns="http://www.w3.org/2000/svg" xmlns:xlink="http://www.w3.org/1999/xlink" x="0px" y="0px"
	 width="20px" height="20px" viewBox="0 0 20 20" enable-background="new 0 0 20 20" xml:space="preserve">
<g>
	<g>
		<path fill="#999999" d="M10,2.356c2.488,0,2.784,0.009,3.768,0.055c0.908,0.04,1.402,0.192,1.731,0.319
			c0.435,0.171,0.745,0.372,1.071,0.699C16.896,3.755,17.1,4.066,17.268,4.5c0.129,0.329,0.28,0.822,0.319,1.731
			c0.047,0.983,0.056,1.278,0.056,3.768s-0.009,2.784-0.056,3.767c-0.039,0.909-0.19,1.403-0.319,1.731
			c-0.168,0.437-0.371,0.746-0.697,1.073c-0.326,0.324-0.637,0.527-1.071,0.697c-0.329,0.127-0.823,0.277-1.731,0.319
			c-0.982,0.047-1.277,0.056-3.768,0.056c-2.489,0-2.784-0.009-3.768-0.056c-0.909-0.042-1.403-0.192-1.731-0.319
			c-0.435-0.17-0.745-0.373-1.071-0.697c-0.326-0.327-0.528-0.639-0.699-1.073c-0.127-0.328-0.278-0.822-0.319-1.731
			C2.363,12.784,2.356,12.489,2.356,10s0.007-2.784,0.055-3.768C2.452,5.323,2.604,4.83,2.73,4.501
			c0.171-0.435,0.374-0.745,0.7-1.071c0.326-0.327,0.636-0.529,1.071-0.7c0.328-0.127,0.822-0.279,1.731-0.319
			C7.216,2.365,7.511,2.356,10,2.356 M10,0.417c-2.603,0-2.929,0.012-3.951,0.058c-1.021,0.047-1.717,0.21-2.325,0.444
			c-0.631,0.245-1.166,0.573-1.7,1.105c-0.532,0.533-0.859,1.069-1.105,1.7C0.684,4.333,0.521,5.028,0.476,6.048
			C0.429,7.071,0.417,7.397,0.417,10c0,2.604,0.012,2.93,0.059,3.951c0.046,1.02,0.208,1.716,0.443,2.324
			c0.246,0.632,0.573,1.166,1.105,1.697c0.534,0.534,1.069,0.861,1.7,1.107c0.608,0.234,1.305,0.396,2.325,0.443
			C7.071,19.57,7.398,19.582,10,19.582c2.604,0,2.93-0.012,3.952-0.059c1.021-0.047,1.715-0.209,2.325-0.443
			c0.631-0.246,1.164-0.573,1.699-1.107c0.531-0.531,0.858-1.065,1.104-1.697c0.236-0.608,0.396-1.306,0.445-2.324
			c0.047-1.021,0.058-1.35,0.058-3.951c0-2.602-0.011-2.929-0.058-3.952c-0.047-1.02-0.209-1.715-0.445-2.324
			c-0.245-0.631-0.572-1.167-1.104-1.699c-0.535-0.532-1.067-0.86-1.699-1.105c-0.61-0.234-1.305-0.397-2.325-0.444
			C12.93,0.429,12.604,0.417,10,0.417L10,0.417z"/>
		<path fill="#999999" d="M10,5.629c-2.415,0-4.371,1.956-4.371,4.371c0,2.414,1.956,4.371,4.371,4.371s4.371-1.957,4.371-4.371
			C14.371,7.585,12.415,5.629,10,5.629z M10,12.555c-1.411,0-2.555-1.144-2.555-2.555S8.589,7.445,10,7.445S12.555,8.589,12.555,10
			S11.411,12.555,10,12.555z"/>
		<circle fill="#999999" cx="14.67" cy="5.162" r="1.206"/>
	</g>
</g>
</svg>
