<?xml version="1.0" encoding="utf-8"?>
<!-- Generator: Adobe Illustrator 15.1.0, SVG Export Plug-In . SVG Version: 6.00 Build 0)  -->
<!DOCTYPE svg PUBLIC "-//W3C//DTD SVG 1.1//EN" "http://www.w3.org/Graphics/SVG/1.1/DTD/svg11.dtd">
<svg version="1.1" id="Layer_1" xmlns="http://www.w3.org/2000/svg" xmlns:xlink="http://www.w3.org/1999/xlink" x="0px" y="0px"
	 width="33px" height="26px" viewBox="0 0 33 26" enable-background="new 0 0 33 26" xml:space="preserve">
<g>
	<path d="M7.493,19.961c1.813-1.575,1.587-3.884,3.164-2.07l-4.963,6.348C4.051,26.347,0.219,25.854,0,22.519l5.147-2.786
		L7.493,19.961z"/>
	<path d="M29.01,3.556c-0.499-0.231-0.907,0.028-0.907,0.58v1.798c0,0.551,0.409,0.811,0.907,0.58l3.399-1.142
		c0.32-0.113,0.328-0.566,0-0.684L29.01,3.556z"/>
	<path fill="#FBDC67" d="M20.782,6.251L5.147,19.732c0.424,0.704,0.914,1.366,1.46,1.977C8.972,24.343,12.405,26,16.224,26
		c7.136,0,12.922-5.782,12.922-12.921V5.635V3.577c0-1.045-1.41-3.577-4.169-3.577c-2.31,0-4.195,1.885-4.195,4.194V6.251z"/>
	<path d="M23.649,12.551c0-2.514-1.115-4.763-2.869-6.296L8.243,17.061c1.488,2.317,4.081,3.857,7.039,3.857
		C19.902,20.917,23.649,17.171,23.649,12.551z"/>
	<path d="M25.992,2.98c-0.516,0-0.936,0.42-0.936,0.938c0,0.518,0.42,0.936,0.936,0.936c0.522,0,0.938-0.418,0.938-0.936
		C26.93,3.401,26.514,2.98,25.992,2.98z"/>
	<line fill="#F3D213" x1="29.146" y1="5.635" x2="29.146" y2="3.577"/>
</g>
</svg>
