<?xml version="1.0" encoding="utf-8"?>
<!-- Generator: Adobe Illustrator 15.1.0, SVG Export Plug-In . SVG Version: 6.00 Build 0)  -->
<!DOCTYPE svg PUBLIC "-//W3C//DTD SVG 1.1//EN" "http://www.w3.org/Graphics/SVG/1.1/DTD/svg11.dtd">
<svg version="1.1" id="Layer_1" xmlns="http://www.w3.org/2000/svg" xmlns:xlink="http://www.w3.org/1999/xlink" x="0px" y="0px"
	 width="201px" height="20px" viewBox="0 0 201 20" enable-background="new 0 0 201 20" xml:space="preserve">
<g>
	<g>
		<path fill="#999999" d="M3.604,3.958c1.394,0,2.361,0.147,3.27,0.947c1.005,0.893,1.266,2.1,1.266,2.991
			c0,0.484-0.077,1.821-1.022,2.767c-0.688,0.689-1.71,1.097-3.141,1.097H2.414v4.59H0V3.958H3.604z M2.414,9.679h0.987
			c0.464,0,1.057,0,1.577-0.391c0.449-0.351,0.671-0.908,0.671-1.448c0-0.688-0.333-1.151-0.687-1.413
			c-0.504-0.352-1.134-0.39-1.711-0.39H2.414V9.679z"/>
		<path fill="#999999" d="M19.187,6.039h-4.459v2.77h4.276v2.079h-4.276v3.383h4.459v2.08h-6.875V3.958h6.875V6.039z"/>
		<path fill="#999999" d="M32.832,15.905c-0.742,0.39-1.729,0.725-3.064,0.725c-2.174,0-3.494-0.744-4.533-1.729
			c-1.43-1.375-1.988-2.916-1.988-4.738c0-2.249,0.929-3.864,1.988-4.849c1.243-1.171,2.786-1.635,4.552-1.635
			c0.874,0,1.914,0.148,3.046,0.762v2.346c-1.141-0.835-2.337-0.917-2.99-0.917c-2.49,0-4.106,2.044-4.106,4.331
			c0,2.749,2.117,4.236,4.199,4.236c1.093,0,2.033-0.302,2.897-0.916V15.905z"/>
		<path fill="#999999" d="M41.821,6.039v10.312h-2.415V6.039h-2.788V3.958h7.989v2.081H41.821z"/>
		<path fill="#999999" d="M61.018,10.164c0,3.772-2.712,6.466-6.614,6.466c-3.903,0-6.615-2.694-6.615-6.466
			s2.712-6.484,6.615-6.484C58.306,3.679,61.018,6.392,61.018,10.164z M58.528,10.164c0-2.508-1.709-4.293-4.125-4.293
			s-4.125,1.785-4.125,4.293c0,2.509,1.71,4.274,4.125,4.274S58.528,12.673,58.528,10.164z"/>
		<path fill="#999999" d="M69.108,3.958c1.392,0,2.359,0.147,3.27,0.947c1.003,0.893,1.263,2.1,1.263,2.991
			c0,0.484-0.074,1.821-1.021,2.767c-0.688,0.689-1.709,1.097-3.143,1.097h-1.561v4.59h-2.414V3.958H69.108z M67.917,9.679h0.987
			c0.464,0,1.059,0,1.578-0.391c0.447-0.351,0.67-0.908,0.67-1.448c0-0.688-0.334-1.151-0.688-1.413
			c-0.501-0.352-1.133-0.39-1.709-0.39h-0.838V9.679z"/>
		<path fill="#999999" d="M84.247,13.75h-5l-1.095,2.601h-2.62l5.37-12.653h1.82l5.222,12.653h-2.602L84.247,13.75z M83.54,11.78
			l-1.749-4.459L80.01,11.78H83.54z"/>
		<path fill="#999999" d="M94.393,8.753h5.24V3.958h2.415v12.393h-2.415v-5.518h-5.24v5.518h-2.416V3.958h2.416V8.753z"/>
		<path fill="#999999" d="M109.611,8.753h5.239V3.958h2.417v12.393h-2.417v-5.518h-5.239v5.518h-2.416V3.958h2.416V8.753z"/>
		<path fill="#999999" d="M122.414,3.958h2.417v4.595h1.932c0.911,0,2.082,0.127,3.047,1.021c0.688,0.632,1.152,1.686,1.152,2.876
			c0,0.836-0.26,1.782-0.67,2.377c-0.928,1.357-2.47,1.523-3.51,1.523h-4.368V3.958z M124.83,14.271h1.412
			c0.474,0,2.229-0.096,2.229-1.82c0-1.765-1.755-1.817-2.193-1.817h-1.449V14.271z M135.027,3.958v12.393h-2.416V3.958H135.027z"/>
		<g>
			<path fill="#999999" d="M169.84,6.318h-4.161v10.313h-2.416V4.237h6.577V6.318z"/>
			<path fill="#999999" d="M176.312,4.237v8.323l6.84-8.603h1.672v12.673h-2.416V8.27l-6.838,8.601h-1.671V4.237H176.312z"/>
			<path fill="#999999" d="M199.7,4.237V14.55h1.3v4.867h-2.23v-2.786h-7.617v2.786h-2.23V14.55c0.892,0.036,1.597-0.746,1.97-1.673
				c0.242-0.614,0.447-1.542,0.447-3.252V4.237H199.7z M193.68,9.625c0,1.914-0.205,2.862-0.427,3.456
				c-0.261,0.688-0.614,1.134-0.967,1.469h4.999V6.318h-3.605V9.625z"/>
		</g>
		<g>
			<path fill="#999999" d="M142.598,3.958v8.324l6.837-8.603h1.673v12.671h-2.415V7.99l-6.84,8.603h-1.669V3.958H142.598z"/>
			<polygon fill="#999999" points="143.931,0 143.931,2.942 148.743,1.47 			"/>
		</g>
	</g>
</g>
</svg>
