<?xml version="1.0" encoding="utf-8"?>
<!-- Generator: Adobe Illustrator 15.1.0, SVG Export Plug-In . SVG Version: 6.00 Build 0)  -->
<!DOCTYPE svg PUBLIC "-//W3C//DTD SVG 1.1//EN" "http://www.w3.org/Graphics/SVG/1.1/DTD/svg11.dtd">
<svg version="1.1" id="Layer_1" xmlns="http://www.w3.org/2000/svg" xmlns:xlink="http://www.w3.org/1999/xlink" x="0px" y="0px"
	 width="233px" height="21px" viewBox="0 0 233 21" enable-background="new 0 0 233 21" xml:space="preserve">
<g>
	<path d="M166.014,4.83h-5.852c-0.238,0-0.432,0.195-0.432,0.433v11.791c0,0.24,0.193,0.435,0.432,0.435h1.602
		c0.238,0,0.433-0.194,0.433-0.435V6.956h3.817c0.238,0,0.433-0.194,0.433-0.434v-1.26C166.447,5.025,166.252,4.83,166.014,4.83z"/>
	<path d="M197.836,15.362h-0.896v-10.1c0-0.237-0.195-0.433-0.433-0.433h-7.671c-0.238,0-0.434,0.195-0.434,0.433v5.071
		c0,1.747-0.209,2.695-0.456,3.322c-0.353,0.882-0.827,1.429-1.651,1.656c-0.163,0.045-0.361,0.238-0.361,0.484v4.105
		c0,0.238,0.195,0.433,0.433,0.433h1.413c0.238,0,0.434-0.194,0.434-0.433v-2.413h7.779v2.413c0,0.238,0.194,0.433,0.432,0.433
		h1.413c0.238,0,0.434-0.194,0.434-0.433v-4.105C198.27,15.558,198.075,15.362,197.836,15.362z M194.475,15.362h-5.104
		c0.36-0.342,0.719-0.797,0.987-1.498c0.226-0.607,0.435-1.575,0.435-3.531V6.956h3.682V15.362z"/>
	<path d="M181.315,4.546h-0.841c-0.238,0-0.555,0.152-0.702,0.338l-6.715,8.448V5.263c0-0.237-0.194-0.433-0.433-0.433h-1.6
		c-0.238,0-0.434,0.195-0.434,0.433v12.04c0,0.237,0.193,0.431,0.43,0.433h0.85c0.237-0.002,0.55-0.153,0.696-0.338l6.714-8.449
		v8.107c0,0.237,0.193,0.431,0.43,0.433h1.609c0.236-0.002,0.429-0.195,0.429-0.433V4.979
		C181.748,4.739,181.554,4.546,181.315,4.546z"/>
	<path d="M148.736,0c-0.896,0-1.622,0.728-1.622,1.626c0,0.896,0.727,1.621,1.622,1.621c0.902,0,1.625-0.725,1.625-1.621
		C150.36,0.728,149.638,0,148.736,0z"/>
	<path d="M33.165,17.211c-0.684,0.368-1.608,0.563-2.767,0.563c-2.219,0-3.566-0.76-4.628-1.768
		c-1.462-1.402-2.031-2.979-2.031-4.838c0-2.296,0.948-3.947,2.031-4.953c1.27-1.195,2.844-1.67,4.647-1.67
		c0.767,0,1.83,0.163,2.737,0.592c0.279,0.133,0.376,0.358,0.376,0.549c0,0.412,0,1.601,0,1.601c0,0.237-0.243,0.354-0.496,0.202
		c-0.831-0.505-1.894-0.703-2.56-0.703c-2.542,0-4.193,2.086-4.193,4.42c0,2.81,2.164,4.328,4.288,4.328
		c1.115,0,1.75-0.23,2.465-0.661c0.204-0.123,0.496-0.019,0.496,0.22c0,0,0,1.127,0,1.522C33.53,16.878,33.427,17.067,33.165,17.211
		z"/>
	<path d="M62.313,11.169c0,3.853-2.769,6.605-6.755,6.605c-3.985,0-6.755-2.753-6.755-6.605c0-3.852,2.77-6.623,6.755-6.623
		C59.543,4.546,62.313,7.317,62.313,11.169z M59.771,11.169c0-2.562-1.746-4.383-4.213-4.383c-2.465,0-4.212,1.821-4.212,4.383
		c0,2.563,1.747,4.365,4.212,4.365C58.025,15.534,59.771,13.731,59.771,11.169z"/>
	<path d="M3.813,12.802c2.902,0,4.498-1.754,4.498-3.947c0-1.895-1.237-4.023-4.212-4.023H0.433C0.195,4.831,0,5.024,0,5.264v11.792
		c0,0.237,0.193,0.429,0.43,0.432h1.607c0.236-0.003,0.43-0.194,0.43-0.432v-4.254H3.813z M2.466,6.956H3.32
		c1.734,0,2.449,0.704,2.449,1.839v0.001l0,0c0,1.06-0.811,1.881-1.863,1.881c-0.239,0-1.439-0.002-1.439-0.002V6.956z"/>
	<path d="M70.706,12.802c2.902,0,4.499-1.754,4.499-3.947c0-1.895-1.238-4.023-4.212-4.023h-3.666c-0.238,0-0.433,0.193-0.433,0.433
		v11.792c0,0.237,0.192,0.429,0.429,0.432h1.607c0.236-0.003,0.429-0.194,0.429-0.432v-4.254H70.706z M69.359,6.956h0.854
		c1.733,0,2.449,0.704,2.449,1.839v0.001l0,0c0,1.06-0.811,1.881-1.863,1.881c-0.238,0-1.44-0.002-1.44-0.002V6.956z"/>
	<path d="M212.331,12.802c2.902,0,4.498-1.754,4.498-3.947c0-1.895-1.237-4.023-4.212-4.023h-3.666
		c-0.238,0-0.434,0.193-0.434,0.433v11.792c0,0.237,0.193,0.429,0.43,0.432h1.608c0.236-0.003,0.429-0.194,0.429-0.432v-4.254
		H212.331z M210.983,6.956h0.854c1.733,0,2.448,0.704,2.448,1.839v0.001l0,0c0,1.06-0.811,1.881-1.862,1.881
		c-0.239,0-1.44-0.002-1.44-0.002V6.956z"/>
	<path d="M19.163,4.831h-6.155c-0.238,0-0.434,0.193-0.434,0.433v11.792c0,0.237,0.193,0.429,0.43,0.432h6.163
		c0.235-0.003,0.429-0.194,0.429-0.432v-1.26c0-0.238-0.194-0.434-0.433-0.434H15.04v-3.453h3.937
		c0.235-0.002,0.429-0.195,0.429-0.432v-1.26c0-0.238-0.195-0.433-0.433-0.433L15.47,9.784h-0.43V6.956h4.123
		c0.239,0,0.433-0.195,0.433-0.433v-1.26C19.596,5.024,19.401,4.831,19.163,4.831z"/>
	<path d="M45.122,4.831h-7.294c-0.238,0-0.432,0.193-0.432,0.433v1.26c0,0.237,0.194,0.433,0.432,0.433h2.415v10.1
		c0,0.237,0.194,0.429,0.429,0.432h1.607c0.237-0.003,0.429-0.194,0.429-0.432v-10.1h2.414c0.238,0,0.433-0.195,0.433-0.433v-1.26
		C45.555,5.024,45.36,4.831,45.122,4.831z"/>
	<path d="M89.646,17.088L84.644,4.964c-0.091-0.219-0.36-0.398-0.599-0.398h-0.993c-0.238,0-0.508,0.178-0.601,0.396l-5.148,12.129
		c-0.093,0.219,0.025,0.396,0.264,0.396h1.811c0.238,0,0.508-0.178,0.601-0.396l0.783-1.86l0.169-0.399h5.104l0.952,2.258
		c0.092,0.221,0.362,0.398,0.601,0.398h1.791C89.616,17.487,89.737,17.31,89.646,17.088z M81.708,12.82l1.821-4.555l0.158,0.403
		l1.626,4.151H81.708z"/>
	<path d="M103.782,4.831h-1.601c-0.238,0-0.433,0.193-0.433,0.433v4.462h-5.353V5.264c0-0.239-0.194-0.433-0.432-0.433h-1.6
		c-0.238,0-0.433,0.193-0.433,0.433v11.792c0,0.237,0.192,0.429,0.428,0.432h1.608c0.236-0.003,0.428-0.194,0.428-0.432v-5.203
		h5.353v5.203c0,0.237,0.191,0.429,0.429,0.432h1.608c0.235-0.003,0.43-0.194,0.43-0.432V5.264
		C104.214,5.024,104.019,4.831,103.782,4.831z"/>
	<path d="M119.323,4.831h-1.601c-0.239,0-0.434,0.193-0.434,0.433v4.462h-5.353V5.264c0-0.239-0.193-0.433-0.431-0.433h-1.6
		c-0.238,0-0.434,0.193-0.434,0.433v11.792c0,0.237,0.193,0.429,0.429,0.432h1.608c0.236-0.003,0.427-0.194,0.427-0.432v-5.203
		h5.353v5.203c0,0.237,0.193,0.429,0.43,0.432h1.609c0.234-0.003,0.429-0.194,0.429-0.432V5.264
		C119.756,5.024,119.56,4.831,119.323,4.831z"/>
	<path d="M137.46,4.831h-1.601c-0.238,0-0.433,0.193-0.433,0.433v11.792c0,0.237,0.192,0.429,0.43,0.432h1.607
		c0.236-0.003,0.429-0.194,0.429-0.432V5.264C137.892,5.024,137.697,4.831,137.46,4.831z"/>
	<path d="M228.449,5.831h-0.83v-1c0-0.239-0.193-0.433-0.432-0.433h-1.602c-0.238,0-0.433,0.193-0.433,0.433v1h-0.829
		c-2.974,0-4.551,2.207-4.551,4.572c0,2.463,1.969,4.398,4.551,4.398h0.829v2.254c0,0.237,0.192,0.429,0.429,0.432h1.609
		c0.236-0.003,0.429-0.194,0.429-0.432v-2.254h0.829c2.583,0,4.551-1.936,4.551-4.398C233,8.038,231.423,5.831,228.449,5.831z
		 M225.153,12.679c0,0-0.503,0.003-0.807,0.003c-1.336,0-2.365-1.043-2.365-2.389v-0.002c0-1.44,1.098-2.334,2.365-2.334h0.807
		V12.679z M230.792,10.292c0,1.346-1.029,2.389-2.365,2.389c-0.303,0-0.807-0.003-0.807-0.003V7.956h0.807
		c1.267,0,2.365,0.895,2.365,2.334V10.292z"/>
	<path d="M132.565,10.566c-0.987-0.911-2.314-1.043-3.545-1.043h-1.54v-4.26c0-0.239-0.195-0.433-0.434-0.433h-1.602
		c-0.238,0-0.433,0.193-0.433,0.433v11.792c0,0.237,0.192,0.429,0.429,0.432h4.031c1.063,0,2.637-0.17,3.587-1.555
		c0.415-0.608,0.683-1.574,0.683-2.43C133.742,12.29,133.267,11.213,132.565,10.566z M129.11,15.362h-1.629v-3.714h1.479
		c0.446,0,2.239,0.054,2.239,1.854C131.198,14.911,130.123,15.362,129.11,15.362z"/>
	<path d="M153.882,4.546h-0.842c-0.238,0-0.553,0.152-0.701,0.338l-6.715,8.448V5.264c0-0.239-0.195-0.433-0.433-0.433h-1.602
		c-0.236,0-0.431,0.193-0.431,0.433v12.04c0,0.236,0.193,0.43,0.428,0.431h0.851c0.237-0.001,0.549-0.152,0.696-0.337l6.715-8.448
		v8.106c0,0.237,0.192,0.429,0.429,0.432h1.608c0.236-0.003,0.43-0.194,0.43-0.432V4.979C154.316,4.74,154.121,4.546,153.882,4.546z
		"/>
	<path d="M203.137,14.487c-0.896,0-1.623,0.728-1.623,1.627c0,0.896,0.727,1.62,1.623,1.62c0.902,0,1.625-0.725,1.625-1.62
		C204.761,15.215,204.039,14.487,203.137,14.487z"/>
</g>
</svg>
