<?xml version="1.0" encoding="utf-8"?>
<!-- Generator: Adobe Illustrator 15.1.0, SVG Export Plug-In . SVG Version: 6.00 Build 0)  -->
<!DOCTYPE svg PUBLIC "-//W3C//DTD SVG 1.1//EN" "http://www.w3.org/Graphics/SVG/1.1/DTD/svg11.dtd">
<svg version="1.1" id="Layer_1" xmlns="http://www.w3.org/2000/svg" xmlns:xlink="http://www.w3.org/1999/xlink" x="0px" y="0px"
	 width="16px" height="22px" viewBox="0 0 16 22" enable-background="new 0 0 16 22" xml:space="preserve">
<path fill="#FBDC67" d="M8,0C4.055,0,0.859,3.194,0.859,7.14c0,1,0.206,1.951,0.578,2.815c0.098,0.23,4.297,8.713,5.644,11.435
	C7.292,21.814,7.625,22,8,22c0.369,0,0.686-0.143,0.924-0.625c1.323-2.674,5.547-11.201,5.656-11.455V9.918
	c0.36-0.854,0.561-1.792,0.561-2.778C15.141,3.194,11.945,0,8,0z M8,4.649c1.375,0,2.49,1.114,2.49,2.49
	c0,1.374-1.115,2.491-2.49,2.491c-1.376,0-2.49-1.117-2.49-2.491C5.51,5.764,6.624,4.649,8,4.649z"/>
</svg>
