<?xml version="1.0" encoding="utf-8"?>
<!-- Generator: Adobe Illustrator 15.1.0, SVG Export Plug-In . SVG Version: 6.00 Build 0)  -->
<!DOCTYPE svg PUBLIC "-//W3C//DTD SVG 1.1//EN" "http://www.w3.org/Graphics/SVG/1.1/DTD/svg11.dtd">
<svg version="1.1" id="Layer_1" xmlns="http://www.w3.org/2000/svg" xmlns:xlink="http://www.w3.org/1999/xlink" x="0px" y="0px"
	 width="39px" height="24px" viewBox="0 0 39 24" enable-background="new 0 0 39 24" xml:space="preserve">
<g>
	<path fill="#E20D17" d="M14.889,12c0-3.817,1.782-7.212,4.556-9.412C17.4,0.969,14.813,0,12,0C5.373,0,0,5.371,0,12
		c0,6.628,5.373,12,12,12c2.813,0,5.4-0.972,7.444-2.592C16.671,19.211,14.889,15.815,14.889,12"/>
	<path fill="#EA610A" d="M14.889,12c0,3.815,1.782,7.211,4.556,9.408C22.219,19.211,24,15.815,24,12
		c0-3.817-1.781-7.212-4.556-9.412C16.671,4.788,14.889,8.183,14.889,12"/>
	<path fill="#F59E00" d="M26.889,0c-2.813,0-5.397,0.969-7.443,2.588C22.219,4.788,24,8.183,24,12c0,3.815-1.781,7.211-4.555,9.408
		C21.491,23.028,24.076,24,26.889,24c6.627,0,12-5.372,12-12C38.889,5.371,33.516,0,26.889,0"/>
</g>
</svg>
