<?xml version="1.0" encoding="utf-8"?>
<!-- Generator: Adobe Illustrator 15.1.0, SVG Export Plug-In . SVG Version: 6.00 Build 0)  -->
<!DOCTYPE svg PUBLIC "-//W3C//DTD SVG 1.1//EN" "http://www.w3.org/Graphics/SVG/1.1/DTD/svg11.dtd">
<svg version="1.1" id="Layer_1" xmlns="http://www.w3.org/2000/svg" xmlns:xlink="http://www.w3.org/1999/xlink" x="0px" y="0px"
	 width="21px" height="22px" viewBox="0 0 21 22" enable-background="new 0 0 21 22" xml:space="preserve">
<path fill="#87DB60" d="M19.336,5.891l-7.172-4.781C11.707,0.805,11.103,0.65,10.5,0.65S9.293,0.805,8.836,1.109L1.664,5.891
	C0.749,6.5,0,7.9,0,9v11c0,1.1,0.9,2,2,2h17c1.1,0,2-0.9,2-2V9C21,7.9,20.251,6.5,19.336,5.891z M10.16,3.111
	c0.027-0.016,0.151-0.061,0.34-0.061c0.189,0,0.312,0.045,0.333,0.055l7.171,4.781c0.215,0.143,0.486,0.627,0.563,0.955
	l-8.064,3.836l-8.069-3.84c0.078-0.326,0.348-0.809,0.562-0.951L10.16,3.111z"/>
</svg>
