<?xml version="1.0" encoding="utf-8"?>
<!-- Generator: Adobe Illustrator 15.1.0, SVG Export Plug-In . SVG Version: 6.00 Build 0)  -->
<!DOCTYPE svg PUBLIC "-//W3C//DTD SVG 1.1//EN" "http://www.w3.org/Graphics/SVG/1.1/DTD/svg11.dtd">
<svg version="1.1" id="Layer_1" xmlns="http://www.w3.org/2000/svg" xmlns:xlink="http://www.w3.org/1999/xlink" x="0px" y="0px"
	 width="40px" height="20px" viewBox="0 0 40 20" enable-background="new 0 0 40 20" xml:space="preserve">
<g>
	<path fill="#87DB60" d="M40,0H4C1.801,0,0,1.8,0,4v16h36c2.201,0,4-1.8,4-4V4V0z"/>
	<g>
		<path fill="#FFFFFF" d="M9.928,13.588V7.543h1.007v1.115c0.456-0.803,1.126-1.211,2.002-1.211c1.104,0,1.776,0.684,1.776,1.883
			v4.258h-1.008V9.594c0-0.827-0.348-1.234-1.043-1.234c-0.468,0-0.876,0.251-1.225,0.743c-0.335,0.491-0.503,1.151-0.503,1.954
			v2.531H9.928z"/>
		<path fill="#FFFFFF" d="M21.133,8.287c0.49,0.551,0.731,1.223,0.731,2.026v0.468h-4.438c0.06,1.188,0.659,1.991,1.703,1.991
			c0.852,0,1.331-0.372,1.679-1.151l0.889,0.384c-0.564,1.188-1.321,1.679-2.567,1.679c-0.876,0-1.548-0.3-2.027-0.899
			c-0.468-0.611-0.708-1.343-0.708-2.219s0.24-1.606,0.708-2.206c0.479-0.612,1.151-0.912,2.027-0.912
			C19.981,7.447,20.653,7.723,21.133,8.287z M20.809,9.87c-0.191-0.911-0.755-1.511-1.679-1.511c-0.899,0-1.451,0.587-1.644,1.511
			H20.809z"/>
		<path fill="#FFFFFF" d="M22.767,7.543h1.056l1.234,4.642l1.188-4.642h1.007l1.187,4.642l1.236-4.642h1.054l-1.835,6.045h-0.958
			l-1.188-4.594l-1.187,4.594h-0.959L22.767,7.543z"/>
	</g>
</g>
</svg>
