<?xml version="1.0" encoding="utf-8"?>
<!-- Generator: Adobe Illustrator 15.1.0, SVG Export Plug-In . SVG Version: 6.00 Build 0)  -->
<!DOCTYPE svg PUBLIC "-//W3C//DTD SVG 1.1//EN" "http://www.w3.org/Graphics/SVG/1.1/DTD/svg11.dtd">
<svg version="1.1" id="Layer_1" xmlns="http://www.w3.org/2000/svg" xmlns:xlink="http://www.w3.org/1999/xlink" x="0px" y="0px"
	 width="22px" height="36px" viewBox="0 0 22 36" enable-background="new 0 0 22 36" xml:space="preserve">
<g>
	<g>
		<path fill="#D9D9D9" d="M5.139,24.902c0.598,4.15,2.942,5.699,5.737,5.699c3.792,0,5.837-2.798,5.837-7c0-4.15-1.847-7-5.837-7
			c-2.645,0-5.04,1.401-6.685,3.6l-3.442-0.699L2.693,0h17.362v4.801H7.134l-1.048,8.75c1.199-1,3.143-1.75,5.089-1.75
			c7.035,0,10.826,5.05,10.826,11.8c0,6.852-4.24,11.801-11.125,11.801c-5.837,0-10.127-3.4-10.875-9.551L5.139,24.902z"/>
	</g>
</g>
</svg>
