<?xml version="1.0" encoding="utf-8"?>
<!-- Generator: Adobe Illustrator 15.1.0, SVG Export Plug-In . SVG Version: 6.00 Build 0)  -->
<!DOCTYPE svg PUBLIC "-//W3C//DTD SVG 1.1//EN" "http://www.w3.org/Graphics/SVG/1.1/DTD/svg11.dtd">
<svg version="1.1" id="Layer_1" xmlns="http://www.w3.org/2000/svg" xmlns:xlink="http://www.w3.org/1999/xlink" x="0px" y="0px"
	 width="23px" height="36px" viewBox="0 0 23 36" enable-background="new 0 0 23 36" xml:space="preserve">
<g>
	<g>
		<path fill="#D9D9D9" d="M5.15,24.701c0.601,3.75,2.65,5.9,6.3,5.9c3.599,0,6.25-2.35,6.25-6.75C17.7,19.301,15,17,11.45,17
			c-1,0-2,0.25-3.05,0.701L6.3,14.9l7.25-10.102H1.701V0h19.498v1.799L12.7,13.4c0.4-0.15,1-0.15,1.45-0.15
			c5.4,0,8.85,4.5,8.85,10.602c0,6.699-5.1,11.551-11.55,11.551c-6,0-11.05-4.201-11.45-10.051L5.15,24.701z"/>
	</g>
</g>
</svg>
