<?xml version="1.0" encoding="utf-8"?>
<!-- Generator: Adobe Illustrator 15.1.0, SVG Export Plug-In . SVG Version: 6.00 Build 0)  -->
<!DOCTYPE svg PUBLIC "-//W3C//DTD SVG 1.1//EN" "http://www.w3.org/Graphics/SVG/1.1/DTD/svg11.dtd">
<svg version="1.1" id="Layer_1" xmlns="http://www.w3.org/2000/svg" xmlns:xlink="http://www.w3.org/1999/xlink" x="0px" y="0px"
	 width="21px" height="30px" viewBox="0 0 21 30" enable-background="new 0 0 21 30" xml:space="preserve">
<g>
	<g>
		<g>
			<circle fill="#87DB60" cx="9.421" cy="2.771" r="2.771"/>
		</g>
	</g>
	<g>
		<g>
			<path fill="#87DB60" d="M18.928,0.829c1.109-0.892,2.795,0.523,1.543,1.893c-1.463,1.6-7.376,7-7.376,7l-2.167,7.458
				c0,0,3.408,3.063,3.908,3.625s0.576,0.905,0.768,2.147c0.263,1.703,0.729,3.988,0.824,4.798c0.285,2.438-2.313,2.813-2.813,0.938
				s-1.779-5.847-1.779-5.847s-4.105-2.974-4.793-3.599s-1.375-1.309-0.875-3.811s1.063-4.502,1.063-4.502l-2.823,0.377
				c0,0-1.063,2.875-1.563,4.125S0.01,16.406,0.481,14.68c0.521-1.912,1.07-3.938,1.223-4.345c0.355-0.944,0.434-1.405,1.777-1.78
				c1.091-0.304,8.711-1.688,8.711-1.688L18.928,0.829z"/>
		</g>
	</g>
	<g>
		<g>
			<path fill="#87DB60" d="M5.324,19.992l2.642,2.417c0,0-4.302,5.472-5.303,6.851c-1.002,1.379-3.525,0.354-2.364-1.773
				C1.461,25.359,5.324,19.992,5.324,19.992z"/>
		</g>
	</g>
</g>
</svg>
