<?xml version="1.0" encoding="utf-8"?>
<!-- Generator: Adobe Illustrator 15.1.0, SVG Export Plug-In . SVG Version: 6.00 Build 0)  -->
<!DOCTYPE svg PUBLIC "-//W3C//DTD SVG 1.1//EN" "http://www.w3.org/Graphics/SVG/1.1/DTD/svg11.dtd">
<svg version="1.1" id="Layer_1" xmlns="http://www.w3.org/2000/svg" xmlns:xlink="http://www.w3.org/1999/xlink" x="0px" y="0px"
	 width="34px" height="15px" viewBox="0 0 34 15" enable-background="new 0 0 34 15" xml:space="preserve">
<g>
	<path fill="#87DB60" d="M15.393,11.344c-3.117,1.515-6.471,2.68-9.059,2.214c3.824,2.795,8.412,0.873,11.236-0.35
		c2.824-1.224,4.939-2.796,8.469-2.446C22.922,8.316,18.51,9.831,15.393,11.344z"/>
	<path fill="#87DB60" d="M16.951,7.231c-1.592-0.533-3.295-1.103-4.925-1.574C8.343,7.456,3.558,9.081,0,7.752
		c0,0,1.452,2.719,6.688,2.719C9.931,10.471,13.04,9.413,16.951,7.231z"/>
	<path fill="#87DB60" d="M29.449,1.094c-2.414-1.632-5.412-1.237-8.344-0.128c1.218,0.477,2.509,0.979,3.896,1.458
		C26.507,1.668,27.984,1.145,29.449,1.094z"/>
	<path fill="#87DB60" d="M29.293,4.57c-7.795-0.104-10.196-3.957-16.861-4.193C8.863,0.25,5.373,2.395,4.59,5.268
		c0,0,1.988-1.631,5.411-1.631c4.626,0,11.136,4.115,16.391,4.115c3.372,0,7.138-2.019,7.608-4.93
		C32.859,3.949,31.019,4.592,29.293,4.57z"/>
</g>
</svg>
