<?xml version="1.0" encoding="utf-8"?>
<!-- Generator: Adobe Illustrator 15.1.0, SVG Export Plug-In . SVG Version: 6.00 Build 0)  -->
<!DOCTYPE svg PUBLIC "-//W3C//DTD SVG 1.1//EN" "http://www.w3.org/Graphics/SVG/1.1/DTD/svg11.dtd">
<svg version="1.1" id="Layer_1" xmlns="http://www.w3.org/2000/svg" xmlns:xlink="http://www.w3.org/1999/xlink" x="0px" y="0px"
	 width="24px" height="24px" viewBox="0 0 24 24" enable-background="new 0 0 24 24" xml:space="preserve">
<g>
	<path fill="#87DB60" d="M12.727,8.22H9.969v3.975h2.758c1.217,0,1.964-0.62,1.964-1.987C14.691,8.842,13.944,8.22,12.727,8.22z"/>
	<path fill="#87DB60" d="M21.979,0H2.021C0.904,0,0,0.905,0,2.021v19.958C0,23.095,0.904,24,2.021,24h19.958
		C23.094,24,24,23.095,24,21.979V2.021C24,0.905,23.094,0,21.979,0z M12.833,14.758H9.969v4.328H7.191V5.657h5.641
		c3.162,0,4.679,1.923,4.679,4.551S15.995,14.758,12.833,14.758z"/>
</g>
</svg>
