<?xml version="1.0" encoding="utf-8"?>
<!-- Generator: Adobe Illustrator 15.1.0, SVG Export Plug-In . SVG Version: 6.00 Build 0)  -->
<!DOCTYPE svg PUBLIC "-//W3C//DTD SVG 1.1//EN" "http://www.w3.org/Graphics/SVG/1.1/DTD/svg11.dtd">
<svg version="1.1" id="Layer_1" xmlns="http://www.w3.org/2000/svg" xmlns:xlink="http://www.w3.org/1999/xlink" x="0px" y="0px"
	 width="28px" height="28px" viewBox="0 0 28 28" enable-background="new 0 0 28 28" xml:space="preserve">
<path fill="#87DB60" d="M27.025,26.788c-0.996-0.446-4.662-1.316-9.85-1.606c0.456-5.194-0.42-9.176-2.644-13.702
	c0.999,0.926,2.312,2.401,2.596,2.75c0.375,0.458,0.707,0.914,1.123,0.208c0.417-0.707-0.042-2.827-2.079-4.159
	c4.451-0.125,6.071,2.62,6.238,3.203c0.166,0.583,0.25,1.123,0.831,0.292c0.582-0.832,0.292-2.621-0.625-4.053
	c-0.914-1.432-2.868-2.893-7.402-2.726c2.15-1.684,7.278-3.785,10.355-4.284c0.698-0.113,0.915-0.333,0.291-0.915
	c-2.462-2.301-6.03-1.456-8.026-0.749c-1.996,0.707-3.285,1.373-5.031,4.201c-0.333-1.039-1.207-3.868-3.203-4.783
	S5.554,0.048,3.821,1.42C3.167,1.937,3.28,2.45,3.779,2.46c2.458,0.054,6.196,1.58,6.945,3.618c-3.16-1.58-6.488-0.249-8.609,1.248
	c-2.121,1.497-2.411,5.863-0.208,8.305c0.506,0.562,1.206,0.303,1.206-0.404c0-4.503,2.953-5.905,7.278-5.947
	c-3.951,3.119-2.662,7.741-1,8.983c0.76,0.568,1.023,0.208,1-0.541c-0.079-2.453,0.268-4.794,1.593-7.357
	c1.998,4.361,1.621,10.958,0.669,14.727C6.25,25.187,2.106,26.13,0.368,27.038c-0.42,0.219-0.557,0.749,0,0.749
	c1.332,0,26.49,0,27.032,0C28.273,27.786,28.231,27.329,27.025,26.788z"/>
</svg>
