<?xml version="1.0" encoding="utf-8"?>
<!-- Generator: Adobe Illustrator 15.1.0, SVG Export Plug-In . SVG Version: 6.00 Build 0)  -->
<!DOCTYPE svg PUBLIC "-//W3C//DTD SVG 1.1//EN" "http://www.w3.org/Graphics/SVG/1.1/DTD/svg11.dtd">
<svg version="1.1" id="Layer_1" xmlns="http://www.w3.org/2000/svg" xmlns:xlink="http://www.w3.org/1999/xlink" x="0px" y="0px"
	 width="26px" height="21px" viewBox="0 0 26 21" enable-background="new 0 0 26 21" xml:space="preserve">
<g>
	<g>
		<g>
			<path fill="#87DB60" d="M24.271,7.309c-0.352,0-0.703-0.122-0.988-0.37C20.361,4.391,16.61,2.987,12.72,2.987
				c-3.744,0-7.389,1.313-10.26,3.694C1.823,7.209,0.877,7.124,0.348,6.489c-0.53-0.634-0.444-1.575,0.192-2.104
				C3.949,1.558,8.274,0,12.72,0c4.617,0,9.07,1.666,12.539,4.69c0.623,0.543,0.687,1.488,0.141,2.108
				C25.103,7.136,24.688,7.309,24.271,7.309z"/>
		</g>
		<g>
			<path fill="#87DB60" d="M20.285,11.386c-0.352,0-0.705-0.123-0.99-0.373c-1.817-1.591-4.152-2.467-6.576-2.467
				c-2.33,0-4.598,0.818-6.383,2.305c-0.635,0.53-1.582,0.446-2.113-0.188C3.692,10.03,3.776,9.089,4.412,8.56
				c2.324-1.935,5.274-3.001,8.308-3.001c3.153,0,6.192,1.141,8.557,3.212c0.622,0.544,0.683,1.488,0.136,2.107
				C21.116,11.215,20.702,11.386,20.285,11.386z"/>
		</g>
		<g>
			<path fill="#87DB60" d="M16.3,15.464c-0.355,0-0.711-0.125-0.998-0.379c-1.393-1.238-3.659-1.268-5.084-0.068
				c-0.633,0.533-1.58,0.453-2.114-0.176c-0.534-0.63-0.456-1.572,0.177-2.105c1.239-1.042,2.816-1.618,4.439-1.618
				c1.692,0,3.318,0.618,4.58,1.738c0.617,0.549,0.672,1.494,0.119,2.109C17.124,15.296,16.713,15.464,16.3,15.464z"/>
		</g>
	</g>
	<g>
		<g>
			<ellipse fill="#87DB60" cx="12.719" cy="18.186" rx="1.822" ry="1.814"/>
		</g>
	</g>
</g>
</svg>
