<?xml version="1.0" encoding="utf-8"?>
<!-- Generator: Adobe Illustrator 15.1.0, SVG Export Plug-In . SVG Version: 6.00 Build 0)  -->
<!DOCTYPE svg PUBLIC "-//W3C//DTD SVG 1.1//EN" "http://www.w3.org/Graphics/SVG/1.1/DTD/svg11.dtd">
<svg version="1.1" id="Layer_1" xmlns="http://www.w3.org/2000/svg" xmlns:xlink="http://www.w3.org/1999/xlink" x="0px" y="0px"
	 width="30px" height="27px" viewBox="0 0 30 27" enable-background="new 0 0 30 27" xml:space="preserve">
<g>
	<path fill="#87DB60" d="M11.043,8.519c-0.335,1.067-0.712,2.274-0.213,2.954c0.409,0.556,1.472,0.85,3.074,0.85
		c1.537,0,2.57-0.301,2.991-0.873c0.57-0.772,0.134-2.179-0.215-3.309c-0.034-0.111-0.064-0.213-0.097-0.318
		c-0.685,0.359-1.367,0.521-1.965,0.521c-1.083,0-2.217-0.143-3.456-0.219C11.125,8.255,11.085,8.384,11.043,8.519z"/>
	<path fill="#87DB60" d="M29.091,5.279c-1.516-0.995-1.894-2.569-3.367-3.571c0.345-0.562,0.782-1.299,0.951-1.705
		c-0.84-0.047-1.841,0.41-2.443,1.098c-1.52-0.104-3.718,1.273-4.866,3.647c-0.453,0.937-0.991,1.647-1.56,2.189
		c0.062,0.242,0.139,0.502,0.227,0.786c0.419,1.359,0.997,3.219,0.003,4.568c-0.718,0.974-2.069,1.447-4.129,1.447
		c-2.129,0-3.509-0.467-4.214-1.428c-0.923-1.256-0.409-2.896,0.002-4.213c0.001-0.005,0.003-0.009,0.005-0.014
		c-2.469,0.021-3.742,0.909-4.379,2.058c-1.669-0.015-3.646,1.17-4.08,3.011c-0.472,2-0.441,3.18-1.238,4.064
		c0.974,0.206,2.653-0.354,3.155-2.535c0.406-1.771,0.952-2.85,1.695-3.244c-0.048,0.236-0.083,0.474-0.104,0.709
		c-0.064,0.705-0.059,1.887,0.177,3.743c0.233,1.835-0.37,3.929-1.151,6.083c-0.516-0.174-1.019-0.353-1.501-0.542
		c-1.473-0.574-2.188,1.366-1.061,2.122c2.505,1.68,7.515,3.242,13.056,3.242s10.552-1.562,13.058-3.242
		c1.127-0.756,0.41-2.696-1.061-2.122c-0.724,0.282-1.477,0.551-2.283,0.798c-0.638-2.741-1.141-5.799-1.415-7.513
		c1.445-1.79,1.327-4.661,1.516-7.668c0.736,0.796,2.059,0.442,3.321,1.021c0.625,0.287,1.521,0.624,2.161-0.195
		C30.342,6.873,30.016,5.886,29.091,5.279z M14.265,23.523c-3.329,0-5.874-0.335-8.016-0.842c1.163-4.184,2.585-5.268,4.597-6.821
		c1.994,0.551,4.414,1.303,7.851,0.695c0.652,1.302,2.19,4.408,2.976,6.263C19.657,23.247,17.285,23.523,14.265,23.523z"/>
</g>
</svg>
