<?xml version="1.0" encoding="utf-8"?>
<!-- Generator: Adobe Illustrator 15.1.0, SVG Export Plug-In . SVG Version: 6.00 Build 0)  -->
<!DOCTYPE svg PUBLIC "-//W3C//DTD SVG 1.1//EN" "http://www.w3.org/Graphics/SVG/1.1/DTD/svg11.dtd">
<svg version="1.1" id="Layer_1" xmlns="http://www.w3.org/2000/svg" xmlns:xlink="http://www.w3.org/1999/xlink" x="0px" y="0px"
	 width="28px" height="30px" viewBox="0 0 28 30" enable-background="new 0 0 28 30" xml:space="preserve">
<path fill="#87DB60" d="M16.461,7.441l-5.699-7.158c-0.258-0.324-0.731-0.377-1.054-0.119c-0.323,0.258-0.378,0.73-0.12,1.053
	l4.901,6.156c-0.034,0-0.066-0.002-0.1-0.002c-2.256,0-4.379,0.224-6.243,0.616l-6.93-5.53C0.895,2.199,0.423,2.251,0.164,2.576
	c-0.259,0.322-0.205,0.795,0.118,1.053l6.045,4.824c-3.212,0.968-5.296,2.496-5.296,4.219v11.871c0,1.977,2.734,3.697,6.78,4.608
	V17.282c0.635,0.143,1.305,0.264,2,0.364v11.869c1.43,0.207,2.968,0.326,4.579,0.326c1.881,0,3.67-0.156,5.294-0.435V17.538
	c0.701-0.12,1.368-0.265,2-0.428v11.869c3.649-0.946,6.066-2.578,6.066-4.436V12.671C27.751,10.026,22.854,7.837,16.461,7.441z
	 M7.774,9.608l2.799,2.233c-0.166,0.667,0.051,1.4,0.624,1.857c0.782,0.623,1.92,0.492,2.545-0.289s0.497-1.92-0.285-2.545
	c-0.574-0.458-1.336-0.507-1.95-0.196L9.697,9.224c1.38-0.218,2.941-0.353,4.693-0.353c0.451,0,0.887,0.01,1.313,0.027l2.125,2.669
	c-0.289,0.59-0.239,1.315,0.198,1.864c0.604,0.758,1.708,0.883,2.467,0.279s0.884-1.709,0.28-2.465
	c-0.436-0.548-1.132-0.76-1.771-0.612l-1.262-1.585c5.527,0.588,8.51,2.537,8.51,3.623c0,1.289-4.187,3.801-11.86,3.801
	c-7.673,0-11.859-2.512-11.859-3.801C2.531,11.824,4.353,10.451,7.774,9.608z"/>
</svg>
