<?xml version="1.0" encoding="utf-8"?>
<!-- Generator: Adobe Illustrator 15.1.0, SVG Export Plug-In . SVG Version: 6.00 Build 0)  -->
<!DOCTYPE svg PUBLIC "-//W3C//DTD SVG 1.1//EN" "http://www.w3.org/Graphics/SVG/1.1/DTD/svg11.dtd">
<svg version="1.1" id="Layer_1" xmlns="http://www.w3.org/2000/svg" xmlns:xlink="http://www.w3.org/1999/xlink" x="0px" y="0px"
	 width="26px" height="26px" viewBox="0 0 26 26" enable-background="new 0 0 26 26" xml:space="preserve">
<g>
	<g>
		<g>
			<circle fill="#87DB60" cx="13" cy="13" r="13"/>
		</g>
	</g>
	<g>
		<g>
			<path fill="#FFFFFF" d="M22.635,13.5c-0.275,0-0.5-0.224-0.5-0.5c0-3.484-2.027-6.716-5.165-8.23
				c-0.249-0.12-0.353-0.418-0.233-0.668c0.121-0.248,0.419-0.353,0.668-0.232c3.481,1.681,5.73,5.265,5.73,9.131
				C23.135,13.276,22.911,13.5,22.635,13.5z"/>
		</g>
	</g>
	<g>
		<g>
			<path fill="#FFFFFF" d="M7.363,21.317c-0.102,0-0.204-0.03-0.293-0.095C4.437,19.319,2.863,16.245,2.863,13
				c0-0.276,0.225-0.5,0.5-0.5c0.276,0,0.5,0.224,0.5,0.5c0,2.925,1.417,5.696,3.792,7.412c0.225,0.162,0.275,0.475,0.114,0.698
				C7.672,21.245,7.519,21.317,7.363,21.317z"/>
		</g>
	</g>
	<g>
		<g>
			<circle fill="#FFFFFF" cx="12.999" cy="13" r="5.364"/>
		</g>
	</g>
	<g>
		<g>
			<circle fill="#87DB60" cx="13" cy="13" r="1.486"/>
		</g>
	</g>
</g>
</svg>
