<?xml version="1.0" encoding="utf-8"?>
<!-- Generator: Adobe Illustrator 15.1.0, SVG Export Plug-In . SVG Version: 6.00 Build 0)  -->
<!DOCTYPE svg PUBLIC "-//W3C//DTD SVG 1.1//EN" "http://www.w3.org/Graphics/SVG/1.1/DTD/svg11.dtd">
<svg version="1.1" id="Layer_1" xmlns="http://www.w3.org/2000/svg" xmlns:xlink="http://www.w3.org/1999/xlink" x="0px" y="0px"
	 width="28px" height="20px" viewBox="0 0 28 20" enable-background="new 0 0 28 20" xml:space="preserve">
<g>
	<g>
		<g>
			<path fill="#87DB60" d="M4.813,11.889c1.038-1.287,3.299-2.116,7.408-0.373c4.108,1.743,9.192,1.534,11.952-1.556
				c3.402-3.809,1.494-8.466,0.622-9.96c6.039,5.623,3.266,16.039-5.976,16.434c-3.98,0.17-6.536-1.743-8.59-3.05
				C8.175,12.076,6.992,10.956,4.813,11.889z"/>
		</g>
	</g>
	<g>
		<g>
			<path fill="#87DB60" d="M20.957,0.934c3.195,2.572,2.448,8.424-3.445,8.672c-4.956,0.209-6.355-2.241-10.167-1.95
				c-3.104,0.236-5.063,2.536-5.063,5.273c0,2.777,1.827,5.431,5.478,6.262C2.075,19.484,0,15.624,0,12.512S2.075,5,8.134,5
				c4.522,0,6.653,2.106,10.277,2.007C22.036,6.91,22.12,2.843,20.957,0.934z"/>
		</g>
	</g>
</g>
</svg>
