<?xml version="1.0" encoding="utf-8"?>
<!-- Generator: Adobe Illustrator 15.1.0, SVG Export Plug-In . SVG Version: 6.00 Build 0)  -->
<!DOCTYPE svg PUBLIC "-//W3C//DTD SVG 1.1//EN" "http://www.w3.org/Graphics/SVG/1.1/DTD/svg11.dtd">
<svg version="1.1" id="Layer_1" xmlns="http://www.w3.org/2000/svg" xmlns:xlink="http://www.w3.org/1999/xlink" x="0px" y="0px"
	 width="26px" height="32px" viewBox="0 0 26 32" enable-background="new 0 0 26 32" xml:space="preserve">
<g>
	<g>
		<g>
			<path fill="#87DB60" d="M21.079,28.887c0,0.553-0.447,1-1,1H4.516c-0.553,0-1-0.447-1-1V12.324c0-0.553,0.447-1,1-1h15.563
				c0.553,0,1,0.447,1,1V28.887z"/>
		</g>
	</g>
	<g>
		<g>
			<path fill="#87DB60" d="M19.579,30.262c0,0.553-0.447,1-1,1H6.016c-0.553,0-1-0.447-1-1v-1.75c0-0.553,0.447-1,1-1h12.563
				c0.553,0,1,0.447,1,1V30.262z"/>
		</g>
	</g>
	<g>
		<g>
			<path fill="#FFFFFF" d="M13.079,27.168c0,0.432-0.351,0.781-0.781,0.781l0,0c-0.432,0-0.781-0.35-0.781-0.781V13.793
				c0-0.432,0.35-0.781,0.781-0.781l0,0c0.431,0,0.781,0.35,0.781,0.781V27.168z"/>
		</g>
	</g>
	<g>
		<g>
			<path fill="#FFFFFF" d="M8.079,27.168c0,0.432-0.351,0.781-0.781,0.781l0,0c-0.432,0-0.781-0.35-0.781-0.781V13.793
				c0-0.432,0.35-0.781,0.781-0.781l0,0c0.431,0,0.781,0.35,0.781,0.781V27.168z"/>
		</g>
	</g>
	<g>
		<g>
			<path fill="#FFFFFF" d="M18.079,27.168c0,0.432-0.351,0.781-0.781,0.781l0,0c-0.432,0-0.781-0.35-0.781-0.781V13.793
				c0-0.432,0.35-0.781,0.781-0.781l0,0c0.431,0,0.781,0.35,0.781,0.781V27.168z"/>
		</g>
	</g>
	<g>
		<g>
			<path fill="#87DB60" d="M22.516,26.262h-2v-1.5h2c0.689,0,1.25-0.561,1.25-1.25v-5.5c0-0.689-0.561-1.25-1.25-1.25h-2v-1.5h2
				c1.517,0,2.75,1.233,2.75,2.75v5.5C25.266,25.028,24.033,26.262,22.516,26.262z"/>
		</g>
	</g>
	<g>
		<g>
			<path fill="#87DB60" d="M20.448,14.092v-1.5c0.875,0,2.174-1.095,2.174-2.606c0-1.269-0.908-2.358-2.158-2.59L19.894,7.29
				l-0.042-0.578c-0.092-1.283-1.166-2.29-2.443-2.29c-0.426,0-0.843,0.118-1.241,0.351l-0.75,0.437l-0.324-0.806
				C14.386,2.64,12.702,1.5,10.804,1.5c-2.138,0-3.985,1.453-4.492,3.533l-0.165,0.68l-0.69-0.118
				C5.276,5.563,5.091,5.533,4.901,5.533C3.026,5.533,1.5,7.124,1.5,9.08c0,1.967,1.774,3.215,2.523,3.215v1.5
				C2.403,13.795,0,11.815,0,9.08c0-2.783,2.198-5.047,4.901-5.047c0.049,0,0.097,0.001,0.146,0.003C5.916,1.63,8.198,0,10.804,0
				c2.249,0,4.272,1.208,5.345,3.136c0.408-0.142,0.829-0.214,1.26-0.214c1.875,0,3.476,1.339,3.861,3.135
				c1.681,0.549,2.852,2.122,2.852,3.929C24.122,12.298,22.147,14.092,20.448,14.092z"/>
		</g>
	</g>
</g>
</svg>
