<?xml version="1.0" encoding="utf-8"?>
<!-- Generator: Adobe Illustrator 15.1.0, SVG Export Plug-In . SVG Version: 6.00 Build 0)  -->
<!DOCTYPE svg PUBLIC "-//W3C//DTD SVG 1.1//EN" "http://www.w3.org/Graphics/SVG/1.1/DTD/svg11.dtd">
<svg version="1.1" id="Layer_1" xmlns="http://www.w3.org/2000/svg" xmlns:xlink="http://www.w3.org/1999/xlink" x="0px" y="0px"
	 width="29px" height="26px" viewBox="0 0 29 26" enable-background="new 0 0 29 26" xml:space="preserve">
<g>
	<path fill="#87DB60" d="M23.228,10.292c-0.465,0.424-0.939,0.875-1.38,1.316c0.499,0.482,0.776,1.012,0.776,1.567
		c0,2.262-4.561,4.094-10.187,4.094S2.25,15.436,2.25,13.174s4.562-4.094,10.188-4.094c1.679,0,3.259,0.166,4.655,0.455
		c0.258-0.505,0.556-1.065,0.881-1.635c-1.669-0.401-3.545-0.633-5.536-0.633C5.568,7.268,0,9.955,0,13.268s3,12.5,12.438,12.5
		c9.563,0,12.437-9.187,12.437-12.5C24.874,12.184,24.271,11.169,23.228,10.292z"/>
	<path fill="#87DB60" d="M25.917,0.559c-1.875,1.877-7.542,9.293-8.667,11.543c-0.142,0.283,1.799,0.955,2.292,0.291
		c2.276-3.064,7.833-8.334,8.75-9.083C29.874,2.018,27.792-1.316,25.917,0.559z"/>
	<path fill="#87DB60" d="M4.336,14.579c0,0,1.413,0.217,1.614-0.133c0.118-0.207,0.503-0.634,1.003-0.634
		c0.499,0,0.87,0.427,1.003,0.634c0.219,0.339,1.613,0.133,1.613,0.133c-0.114-1.254-1.235-2.242-2.616-2.242
		C5.571,12.336,4.45,13.325,4.336,14.579z"/>
	<path fill="#87DB60" d="M14.974,12.49c-0.115-1.254-1.236-2.242-2.617-2.242c-1.382,0-2.503,0.988-2.617,2.242
		c0,0,1.413,0.217,1.613-0.133c0.119-0.207,0.504-0.634,1.004-0.634c0.499,0,0.869,0.427,1.003,0.634
		C13.578,12.696,14.974,12.49,14.974,12.49z"/>
	<path fill="#87DB60" d="M14.478,15.6c0.119-0.207,0.504-0.634,1.004-0.634c0.499,0,0.869,0.427,1.003,0.634
		c0.219,0.339,1.614,0.133,1.614,0.133c-0.115-1.254-1.236-2.242-2.617-2.242c-1.382,0-2.503,0.988-2.617,2.242
		C12.864,15.733,14.277,15.95,14.478,15.6z"/>
</g>
</svg>
