<?xml version="1.0" encoding="utf-8"?>
<!-- Generator: Adobe Illustrator 15.1.0, SVG Export Plug-In . SVG Version: 6.00 Build 0)  -->
<!DOCTYPE svg PUBLIC "-//W3C//DTD SVG 1.1//EN" "http://www.w3.org/Graphics/SVG/1.1/DTD/svg11.dtd">
<svg version="1.1" id="Layer_1" xmlns="http://www.w3.org/2000/svg" xmlns:xlink="http://www.w3.org/1999/xlink" x="0px" y="0px"
	 width="27px" height="35px" viewBox="0 0 27 35" enable-background="new 0 0 27 35" xml:space="preserve">
<g>
	<path fill="#87DB60" d="M23.9,0H7.6C6.166,0,5,1.166,5,2.599V5H2.6C1.166,5,0,6.166,0,7.599v24.277c0,1.434,1.166,2.601,2.6,2.601
		H18.9c1.434,0,2.6-1.167,2.6-2.601v-2.399h2.4c1.434,0,2.6-1.167,2.6-2.601V2.599C26.5,1.166,25.334,0,23.9,0z M20,31.876
		c0,0.606-0.494,1.101-1.1,1.101H2.6c-0.608,0-1.1-0.494-1.1-1.101V7.599C1.5,6.993,1.992,6.5,2.6,6.5H18.9
		c0.605,0,1.1,0.493,1.1,1.099V31.876z M25,26.876c0,0.606-0.494,1.101-1.1,1.101h-2.4V7.599C21.5,6.166,20.334,5,18.9,5H6.5V2.599
		C6.5,1.993,6.992,1.5,7.6,1.5H23.9c0.605,0,1.1,0.493,1.1,1.099V26.876z"/>
	<path fill="#87DB60" d="M15.865,20.446c0-1.632-0.982-2.604-2.265-3.367c-1.281-0.764-2.267-1.809-2.813-2.593
		c-0.546,0.784-1.531,1.829-2.813,2.593c-1.283,0.763-2.264,1.735-2.264,3.367c0,2.57,2.832,3.32,4.566,2.158
		c-0.03,0.631-0.209,1.635-1.275,2.139c0,0.277,0,0.555,0,0.555h1.786h1.786c0,0,0-0.277,0-0.555
		c-1.066-0.504-1.245-1.508-1.274-2.139C13.031,23.767,15.865,23.017,15.865,20.446z"/>
	<path fill="#87DB60" d="M6.242,12.711h0.954L5.582,7.944H4.696l-1.614,4.767h0.953l0.348-1.123h1.512L6.242,12.711z M4.635,10.771
		l0.504-1.655l0.504,1.655H4.635z"/>
	<path fill="#87DB60" d="M17.189,28.001h-1.512l-0.348-1.125h-0.953l1.613,4.768h0.887l1.613-4.768h-0.953L17.189,28.001z
		 M16.434,30.472l-0.504-1.655h1.008L16.434,30.472z"/>
</g>
</svg>
