<?xml version="1.0" encoding="utf-8"?>
<!-- Generator: Adobe Illustrator 15.1.0, SVG Export Plug-In . SVG Version: 6.00 Build 0)  -->
<!DOCTYPE svg PUBLIC "-//W3C//DTD SVG 1.1//EN" "http://www.w3.org/Graphics/SVG/1.1/DTD/svg11.dtd">
<svg version="1.1" id="Layer_1" xmlns="http://www.w3.org/2000/svg" xmlns:xlink="http://www.w3.org/1999/xlink" x="0px" y="0px"
	 width="26px" height="28px" viewBox="0 0 26 28" enable-background="new 0 0 26 28" xml:space="preserve">
<g>
	<path fill="#87DB60" d="M6.189,1.063c0,0.375,0,8.031,0,8.031H4.564c0,0-0.219-7.25-0.219-7.75S4.157,0.688,3.814,0.688
		c-0.344,0-0.532,0.156-0.532,0.656s-0.218,7.75-0.218,7.75H1.439c0,0,0-7.656,0-8.031S0.595,0.344,0.501,1.156
		c-0.094,0.813-0.469,8.125-0.5,9.375c-0.031,1.25,0.406,2.219,2.844,2.219c-0.125,3.781-0.688,11.748-0.75,12.671
		c-0.063,0.923,0.094,2.017,1.719,2.017s1.781-1.094,1.718-2.017c-0.062-0.923-0.625-8.89-0.75-12.671
		c2.438,0,2.875-0.969,2.844-2.219c-0.031-1.25-0.406-8.563-0.5-9.375C7.032,0.344,6.189,0.688,6.189,1.063z"/>
	<path fill="#87DB60" d="M13.751,0.375c-1.656,1.032-2.25,2.656-2.438,4.621s-0.157,5.816-0.157,6.598s0.407,1.156,0.979,1.156
		s0.709,0.031,0.709,0.031s-1.04,11.785-1.256,13.429c-0.219,1.656,2.943,1.531,2.943,0.25c0-0.844,0-24.522,0-25.46
		S14.179,0.108,13.751,0.375z"/>
	<path fill="#87DB60" d="M25.251,6.219c0-3-1.281-6.219-3.563-6.219c-2.282,0-3.563,3.219-3.563,6.219s1.063,4.656,2.906,5.156
		c-0.343,5.219-0.843,12.592-0.937,14.046s0.5,2.017,1.594,2.017c1.093,0,1.688-0.563,1.593-2.017
		c-0.093-1.454-0.593-8.827-0.937-14.046C24.189,10.875,25.251,9.219,25.251,6.219z"/>
</g>
</svg>
