<?xml version="1.0" encoding="utf-8"?>
<!-- Generator: Adobe Illustrator 15.1.0, SVG Export Plug-In . SVG Version: 6.00 Build 0)  -->
<!DOCTYPE svg PUBLIC "-//W3C//DTD SVG 1.1//EN" "http://www.w3.org/Graphics/SVG/1.1/DTD/svg11.dtd">
<svg version="1.1" id="Layer_1" xmlns="http://www.w3.org/2000/svg" xmlns:xlink="http://www.w3.org/1999/xlink" x="0px" y="0px"
	 width="24px" height="28px" viewBox="0 0 24 28" enable-background="new 0 0 24 28" xml:space="preserve">
<g>
	<g>
		<g>
			<path fill="#87DB60" d="M21.87,2.026c-2.701-2.702-7.08-2.702-9.781,0c-1.554,1.553-2.209,3.66-1.976,5.686l6.071,6.071
				c2.025,0.232,4.133-0.423,5.686-1.976C24.571,9.105,24.571,4.728,21.87,2.026z"/>
		</g>
	</g>
	<g>
		<g>
			
				<rect x="8.657" y="6.14" transform="matrix(0.7072 0.707 -0.707 0.7072 9.8351 -9.9674)" fill="#FFFFFF" width="16.588" height="1.5"/>
		</g>
	</g>
	<g>
		<g>
			<polygon fill="#87DB60" points="14.091,14.605 9.289,9.804 1.82,18.688 5.208,22.075 			"/>
		</g>
	</g>
	<g>
		<g>
			<path fill="#87DB60" d="M13.695,27.849c-0.05,0-0.102-0.004-0.153-0.012c-0.545-0.084-0.92-0.595-0.836-1.141
				c0.16-1.04-0.293-1.926-1.211-2.368c-0.96-0.459-2.61-0.426-4.104,1.193c-1.954,2.117-3.757,2.07-4.66,1.856
				c-1.252-0.299-2.249-1.259-2.6-2.503c-0.349-1.232,0.008-2.532,0.952-3.478c0.39-0.391,1.022-0.391,1.414,0
				c0.391,0.391,0.391,1.023,0,1.414c-0.591,0.592-0.53,1.206-0.442,1.52c0.155,0.548,0.591,0.971,1.142,1.102
				c0.822,0.196,1.79-0.253,2.723-1.266c1.84-1.995,4.368-2.64,6.442-1.641c1.701,0.819,2.612,2.575,2.32,4.475
				C14.605,27.495,14.18,27.849,13.695,27.849z"/>
		</g>
	</g>
</g>
</svg>
