<?xml version="1.0" encoding="utf-8"?>
<!-- Generator: Adobe Illustrator 15.1.0, SVG Export Plug-In . SVG Version: 6.00 Build 0)  -->
<!DOCTYPE svg PUBLIC "-//W3C//DTD SVG 1.1//EN" "http://www.w3.org/Graphics/SVG/1.1/DTD/svg11.dtd">
<svg version="1.1" id="Layer_1" xmlns="http://www.w3.org/2000/svg" xmlns:xlink="http://www.w3.org/1999/xlink" x="0px" y="0px"
	 width="24px" height="24px" viewBox="0 0 24 24" enable-background="new 0 0 24 24" xml:space="preserve">
<g>
	<circle fill="#87DB60" cx="12" cy="12" r="12"/>
	<path fill="#FFFFFF" d="M12.258,7.491c1.928,0,3.239,0.968,3.655,2.672l-1.475,0.377c-0.34-0.895-0.957-1.539-2.18-1.539
		C10.897,9.001,9.75,9.959,9.75,12c0,2.042,1.147,3,2.508,3c1.223,0,1.84-0.64,2.18-1.535l1.475,0.377
		c-0.416,1.7-1.727,2.672-3.655,2.672c-2.206,0-4.172-1.551-4.172-4.514C8.086,9.04,10.052,7.491,12.258,7.491z"/>
</g>
</svg>
