<?xml version="1.0" encoding="utf-8"?>
<!-- Generator: Adobe Illustrator 15.1.0, SVG Export Plug-In . SVG Version: 6.00 Build 0)  -->
<!DOCTYPE svg PUBLIC "-//W3C//DTD SVG 1.1//EN" "http://www.w3.org/Graphics/SVG/1.1/DTD/svg11.dtd">
<svg version="1.1" id="Layer_1" xmlns="http://www.w3.org/2000/svg" xmlns:xlink="http://www.w3.org/1999/xlink" x="0px" y="0px"
	 width="22px" height="22px" viewBox="0 0 22 22" enable-background="new 0 0 22 22" xml:space="preserve">
<g>
	<g>
		<path fill="#FBDC67" d="M11,0C4.928,0,0,4.926,0,11c0,6.076,4.928,11,11,11c6.074,0,11-4.924,11-11C22,4.926,17.074,0,11,0z"/>
	</g>
	<path fill="#FFFFFF" d="M16,10h-4V6c0-0.552-0.448-1-1-1s-1,0.448-1,1v4H6c-0.552,0-1,0.448-1,1s0.448,1,1,1h4v4
		c0,0.552,0.448,1,1,1s1-0.448,1-1v-4h4c0.552,0,1-0.448,1-1S16.552,10,16,10z"/>
</g>
</svg>
