<?xml version="1.0" encoding="utf-8"?>
<!-- Generator: Adobe Illustrator 15.1.0, SVG Export Plug-In . SVG Version: 6.00 Build 0)  -->
<!DOCTYPE svg PUBLIC "-//W3C//DTD SVG 1.1//EN" "http://www.w3.org/Graphics/SVG/1.1/DTD/svg11.dtd">
<svg version="1.1" id="Layer_1" xmlns="http://www.w3.org/2000/svg" xmlns:xlink="http://www.w3.org/1999/xlink" x="0px" y="0px"
	 width="25px" height="25px" viewBox="0 0 25 25" enable-background="new 0 0 25 25" xml:space="preserve">
<g>
	<g>
		<path fill="#FBDC67" d="M12.5,0C5.601,0,0,5.598,0,12.5C0,19.404,5.601,25,12.5,25C19.403,25,25,19.404,25,12.5
			C25,5.598,19.403,0,12.5,0z"/>
	</g>
	<path fill="#FFFFFF" d="M17.5,11.5h-4v-4c0-0.552-0.448-1-1-1s-1,0.448-1,1v4h-4c-0.552,0-1,0.448-1,1s0.448,1,1,1h4v4
		c0,0.552,0.448,1,1,1s1-0.448,1-1v-4h4c0.552,0,1-0.448,1-1S18.052,11.5,17.5,11.5z"/>
</g>
</svg>
