<?xml version="1.0" encoding="utf-8"?>
<!-- Generator: Adobe Illustrator 15.1.0, SVG Export Plug-In . SVG Version: 6.00 Build 0)  -->
<!DOCTYPE svg PUBLIC "-//W3C//DTD SVG 1.1//EN" "http://www.w3.org/Graphics/SVG/1.1/DTD/svg11.dtd">
<svg version="1.1" id="Layer_1" xmlns="http://www.w3.org/2000/svg" xmlns:xlink="http://www.w3.org/1999/xlink" x="0px" y="0px"
	 width="25px" height="30px" viewBox="0 0 25 30" enable-background="new 0 0 25 30" xml:space="preserve">
<g>
	<g>
		<g>
			<path fill="#87DB60" d="M20.228,27.721c0,0.531-0.429,0.96-0.96,0.96H4.334c-0.53,0-0.959-0.429-0.959-0.96V11.826
				c0-0.529,0.429-0.959,0.959-0.959h14.934c0.531,0,0.96,0.43,0.96,0.959V27.721z"/>
		</g>
	</g>
	<g>
		<g>
			<path fill="#87DB60" d="M18.788,29.041c0,0.529-0.429,0.959-0.96,0.959H5.773c-0.53,0-0.96-0.43-0.96-0.959v-1.68
				c0-0.531,0.43-0.96,0.96-0.96h12.055c0.531,0,0.96,0.429,0.96,0.96V29.041z"/>
		</g>
	</g>
	<g>
		<g>
			<path fill="#FFFFFF" d="M12.551,26.072c0,0.414-0.336,0.749-0.75,0.749l0,0c-0.414,0-0.75-0.335-0.75-0.749V13.236
				c0-0.414,0.336-0.75,0.75-0.75l0,0c0.414,0,0.75,0.336,0.75,0.75V26.072z"/>
		</g>
	</g>
	<g>
		<g>
			<path fill="#FFFFFF" d="M7.752,26.072c0,0.414-0.335,0.749-0.75,0.749l0,0c-0.414,0-0.749-0.335-0.749-0.749V13.236
				c0-0.414,0.335-0.75,0.749-0.75l0,0c0.415,0,0.75,0.336,0.75,0.75V26.072z"/>
		</g>
	</g>
	<g>
		<g>
			<path fill="#FFFFFF" d="M17.349,26.072c0,0.414-0.335,0.749-0.75,0.749l0,0c-0.414,0-0.749-0.335-0.749-0.749V13.236
				c0-0.414,0.335-0.75,0.749-0.75l0,0c0.415,0,0.75,0.336,0.75,0.75V26.072z"/>
		</g>
	</g>
	<g>
		<g>
			<path fill="#87DB60" d="M21.607,25.201h-1.92v-1.439h1.92c0.661,0,1.199-0.537,1.199-1.199v-5.277
				c0-0.662-0.538-1.199-1.199-1.199h-1.92v-1.439h1.92c1.455,0,2.639,1.184,2.639,2.639v5.277
				C24.246,24.018,23.063,25.201,21.607,25.201z"/>
		</g>
	</g>
	<g>
		<g>
			<path fill="#87DB60" d="M19.623,13.523v-1.439c0.84,0,2.086-1.051,2.086-2.502c0-1.217-0.871-2.263-2.07-2.484l-0.548-0.102
				l-0.039-0.555c-0.089-1.232-1.119-2.197-2.346-2.197c-0.409,0-0.81,0.113-1.19,0.336l-0.72,0.419l-0.311-0.773
				c-0.68-1.692-2.296-2.786-4.117-2.786c-2.052,0-3.825,1.395-4.312,3.391L5.898,5.482L5.237,5.369
				c-0.175-0.03-0.352-0.059-0.534-0.059c-1.8,0-3.264,1.525-3.264,3.403c0,1.888,1.702,3.085,2.421,3.085v1.439
				C2.306,13.238,0,11.339,0,8.714c0-2.671,2.109-4.843,4.703-4.843c0.047,0,0.094,0,0.141,0.002C5.679,1.564,7.867,0,10.368,0
				c2.159,0,4.1,1.159,5.129,3.01c0.392-0.137,0.796-0.205,1.209-0.205c1.799,0,3.335,1.284,3.706,3.008
				c1.612,0.526,2.735,2.036,2.735,3.77C23.147,11.802,21.253,13.523,19.623,13.523z"/>
		</g>
	</g>
</g>
</svg>
