<?xml version="1.0" encoding="utf-8"?>
<!-- Generator: Adobe Illustrator 15.1.0, SVG Export Plug-In . SVG Version: 6.00 Build 0)  -->
<!DOCTYPE svg PUBLIC "-//W3C//DTD SVG 1.1//EN" "http://www.w3.org/Graphics/SVG/1.1/DTD/svg11.dtd">
<svg version="1.1" id="Layer_1" xmlns="http://www.w3.org/2000/svg" xmlns:xlink="http://www.w3.org/1999/xlink" x="0px" y="0px"
	 width="22px" height="32px" viewBox="0 0 22 32" enable-background="new 0 0 22 32" xml:space="preserve">
<g>
	<circle fill="#87DB60" cx="10.709" cy="14.749" r="2.917"/>
	<circle fill="#87DB60" cx="10.709" cy="28.603" r="2.917"/>
	<circle fill="#87DB60" cx="18.502" cy="14.749" r="2.917"/>
	<circle fill="#87DB60" cx="6.813" cy="21.832" r="2.917"/>
	<circle fill="#87DB60" cx="14.604" cy="21.833" r="2.917"/>
	<circle fill="#87DB60" cx="2.917" cy="14.75" r="2.917"/>
	<path fill="#87DB60" d="M10.709,9.084c3.709,2.082,7.375-0.918,7.793-4.584c-1.643-0.298-3.643,0.043-5.216,0.806
		C13.298,3.464,12.531,1.36,10.698,0C8.847,1.482,8.058,3.498,8.026,5.256C6.469,4.529,4.522,4.209,2.917,4.5
		C3.334,8.166,7,11.166,10.709,9.084z"/>
</g>
</svg>
