<?xml version="1.0" encoding="utf-8"?>
<!-- Generator: Adobe Illustrator 15.1.0, SVG Export Plug-In . SVG Version: 6.00 Build 0)  -->
<!DOCTYPE svg PUBLIC "-//W3C//DTD SVG 1.1//EN" "http://www.w3.org/Graphics/SVG/1.1/DTD/svg11.dtd">
<svg version="1.1" id="Layer_1" xmlns="http://www.w3.org/2000/svg" xmlns:xlink="http://www.w3.org/1999/xlink" x="0px" y="0px"
	 width="29px" height="26px" viewBox="0 0 29 26" enable-background="new 0 0 29 26" xml:space="preserve">
<g>
	<path fill="#87DB60" d="M23.227,10.292c-0.464,0.424-0.939,0.875-1.378,1.315c0.499,0.483,0.777,1.012,0.777,1.568
		c0,2.262-4.562,4.094-10.188,4.094c-5.627,0-10.188-1.832-10.188-4.094s4.561-4.094,10.188-4.094c1.679,0,3.258,0.166,4.655,0.455
		c0.258-0.504,0.556-1.065,0.88-1.635c-1.668-0.402-3.544-0.633-5.535-0.633C5.568,7.269,0,9.955,0,13.269
		c0,3.313,3,12.5,12.438,12.5c9.563,0,12.438-9.188,12.438-12.5C24.875,12.185,24.27,11.169,23.227,10.292z"/>
	<path fill="#87DB60" d="M25.916,0.56c-1.875,1.875-7.541,9.291-8.666,11.541c-0.143,0.285,1.799,0.957,2.292,0.293
		c2.275-3.064,7.831-8.334,8.749-9.084C29.875,2.019,27.791-1.317,25.916,0.56z"/>
	<path fill="#87DB60" d="M4.336,14.58c0,0,1.413,0.217,1.613-0.133c0.119-0.207,0.504-0.635,1.004-0.635
		c0.499,0,0.869,0.428,1.003,0.635c0.219,0.338,1.613,0.133,1.613,0.133c-0.114-1.254-1.235-2.242-2.616-2.242
		C5.571,12.337,4.45,13.326,4.336,14.58z"/>
	<path fill="#87DB60" d="M14.973,12.49c-0.114-1.254-1.235-2.242-2.616-2.242c-1.382,0-2.503,0.988-2.617,2.242
		c0,0,1.413,0.217,1.613-0.133c0.119-0.207,0.504-0.633,1.004-0.633c0.499,0,0.869,0.426,1.003,0.633
		C13.578,12.697,14.973,12.49,14.973,12.49z"/>
	<path fill="#87DB60" d="M14.478,15.601c0.119-0.207,0.504-0.635,1.004-0.635c0.499,0,0.869,0.428,1.003,0.635
		c0.219,0.338,1.613,0.133,1.613,0.133c-0.114-1.254-1.235-2.242-2.616-2.242c-1.382,0-2.503,0.988-2.617,2.242
		C12.864,15.734,14.277,15.951,14.478,15.601z"/>
</g>
</svg>
