<?xml version="1.0" encoding="utf-8"?>
<!-- Generator: Adobe Illustrator 15.1.0, SVG Export Plug-In . SVG Version: 6.00 Build 0)  -->
<!DOCTYPE svg PUBLIC "-//W3C//DTD SVG 1.1//EN" "http://www.w3.org/Graphics/SVG/1.1/DTD/svg11.dtd">
<svg version="1.1" id="Layer_1" xmlns="http://www.w3.org/2000/svg" xmlns:xlink="http://www.w3.org/1999/xlink" x="0px" y="0px"
	 width="280px" height="280px" viewBox="0 0 280 280" enable-background="new 0 0 280 280" xml:space="preserve">
<g>
	<defs>
		<path id="XMLID_44_" d="M0,4c0-2.2,1.801-4,4-4h272c2.201,0,4,1.8,4,4v272c0,2.2-1.799,4-4,4H4c-2.199,0-4-1.8-4-4V4z"/>
	</defs>
	<clipPath id="XMLID_2_">
		<use xlink:href="#XMLID_44_"  overflow="visible"/>
	</clipPath>
	<g clip-path="url(#XMLID_2_)">
		<path fill="#87DB60" d="M137.035,231.937c-14.378,0-26.034-11.655-26.034-26.034H84.966c0,28.753,23.313,52.068,52.068,52.068
			L137.035,231.937z"/>
		<path fill="#FFD230" d="M207.823,121.563c-20.361,0-36.873,16.512-36.873,36.872h73.75
			C244.7,138.075,228.192,121.563,207.823,121.563z"/>
		<path fill="#F4DA82" d="M241.471,68.172c0-12.272,9.95-22.219,22.225-22.219c12.275,0,22.22,9.947,22.22,22.219
			c0,12.277-9.944,22.226-22.22,22.226C251.421,90.398,241.471,80.45,241.471,68.172z"/>
		<path fill="#5DDB23" d="M144.002,110.261c8.738,0,15.823-7.084,15.823-15.824V78.612l0,0c-8.74,0-15.823,7.084-15.823,15.824
			c-8.739,0-15.826,7.086-15.826,15.824H144.002z"/>
		<path fill="#FBEBA1" d="M126.09,62.461c25.539,0,46.244-20.702,46.244-46.241c0-25.54-20.705-46.243-46.244-46.243
			S79.845-9.32,79.845,16.22C79.845,41.759,100.551,62.461,126.09,62.461z M126.09-2.275c10.216,0,18.498,8.284,18.498,18.495
			c0,10.216-8.282,18.497-18.498,18.497c-10.214,0-18.498-8.281-18.498-18.497C107.592,6.008,115.876-2.275,126.09-2.275z"/>
		<path fill="#F4DA82" d="M32.152,265.435c0,10.299-8.351,18.646-18.652,18.646v27.98c25.751,0,46.627-20.879,46.627-46.626
			c0-25.75-20.876-46.626-46.627-46.626v27.976C23.802,246.784,32.152,255.133,32.152,265.435z"/>
		<path fill="#BAEAA4" d="M20,107.277h51.364V81.596H45.682l0,0C31.498,81.596,20,93.093,20,107.277z"/>
		<path fill="#FFD230" d="M29.958,166.797c0-10.465,8.479-18.942,18.94-18.942c10.463,0,18.941,8.477,18.941,18.942
			c0,10.461-8.479,18.94-18.941,18.94C38.437,185.737,29.958,177.259,29.958,166.797z"/>
		<path fill="#5DDB23" d="M259.693,224.873c0-11.813-9.574-21.391-21.388-21.391v21.391c0,11.811,9.575,21.387,21.388,21.387
			V224.873z"/>
		<path fill="#BAEAA4" d="M200.119,231.989L200.119,231.989c0-15.042-12.193-27.237-27.237-27.237v27.237H200.119z"/>
	</g>
</g>
</svg>
