<?xml version="1.0" encoding="utf-8"?>
<!-- Generator: Adobe Illustrator 15.1.0, SVG Export Plug-In . SVG Version: 6.00 Build 0)  -->
<!DOCTYPE svg PUBLIC "-//W3C//DTD SVG 1.1//EN" "http://www.w3.org/Graphics/SVG/1.1/DTD/svg11.dtd">
<svg version="1.1" id="Layer_1" xmlns="http://www.w3.org/2000/svg" xmlns:xlink="http://www.w3.org/1999/xlink" x="0px" y="0px"
	 width="280px" height="280px" viewBox="0 0 280 280" enable-background="new 0 0 280 280" xml:space="preserve">
<g>
	<defs>
		<path id="XMLID_46_" d="M280,276c0,2.2-1.799,4-4,4H4c-2.199,0-4-1.8-4-4V4c0-2.2,1.801-4,4-4h272c2.201,0,4,1.8,4,4V276z"/>
	</defs>
	<clipPath id="XMLID_2_">
		<use xlink:href="#XMLID_46_"  overflow="visible"/>
	</clipPath>
	<g clip-path="url(#XMLID_2_)">
		<path fill="#BAEAA4" d="M113.771,53.783c22.521,0,40.78,18.256,40.78,40.78h40.782c0-45.039-36.52-81.563-81.563-81.563V53.783z"
			/>
		<path fill="#FFD230" d="M76.981,129.938c14.216,0,25.743-11.527,25.743-25.742H51.235
			C51.235,118.411,62.761,129.938,76.981,129.938z"/>
		<path fill="#F4DA82" d="M37.542,171.25c0,13.932-11.292,25.221-25.222,25.221c-13.935,0-25.223-11.289-25.223-25.221
			c0-13.932,11.288-25.224,25.223-25.224C26.25,146.026,37.542,157.318,37.542,171.25z"/>
		<path fill="#5DDB23" d="M63.674,213c-10.984,0-19.891,8.906-19.891,19.891v19.892l0,0c10.987,0,19.891-8.906,19.891-19.892
			c10.984,0,19.893-8.907,19.893-19.891H63.674z"/>
		<path fill="#FBEBA1" d="M193.11,219.98c-30.996,0-56.127,25.128-56.127,56.127c0,30.998,25.131,56.124,56.127,56.124
			c30.997,0,56.128-25.126,56.128-56.124C249.238,245.109,224.107,219.98,193.11,219.98z M193.11,298.555
			c-12.399,0-22.45-10.054-22.45-22.447c0-12.399,10.051-22.45,22.45-22.45c12.396,0,22.45,10.051,22.45,22.45
			C215.561,288.501,205.507,298.555,193.11,298.555z"/>
		<path fill="#F4DA82" d="M244.684,8.621c0-8.826,7.156-15.98,15.983-15.98v-23.979c-22.068,0-39.961,17.894-39.961,39.959
			c0,22.068,17.893,39.96,39.961,39.96V24.604C251.84,24.604,244.684,17.45,244.684,8.621z"/>
		<path fill="#BAEAA4" d="M176.001,150H111v32.5h32.502l0,0C161.448,182.5,176.001,167.951,176.001,150z"/>
		<circle fill="#FFD230" cx="252.001" cy="122" r="11.475"/>
		<path fill="#5DDB23" d="M210.673,174.602c0,11.813,9.575,21.39,21.389,21.39v-21.39c0-11.811-9.576-21.388-21.389-21.388V174.602z
			"/>
		<path fill="#87DB60" d="M19.234,44L19.234,44c0,13.56,10.989,24.552,24.547,24.552V44H19.234z"/>
	</g>
</g>
</svg>
