<?xml version="1.0" encoding="utf-8"?>
<!-- Generator: Adobe Illustrator 15.1.0, SVG Export Plug-In . SVG Version: 6.00 Build 0)  -->
<!DOCTYPE svg PUBLIC "-//W3C//DTD SVG 1.1//EN" "http://www.w3.org/Graphics/SVG/1.1/DTD/svg11.dtd">
<svg version="1.1" id="Layer_1" xmlns="http://www.w3.org/2000/svg" xmlns:xlink="http://www.w3.org/1999/xlink" x="0px" y="0px"
	 width="280px" height="280px" viewBox="0 0 280 280" enable-background="new 0 0 280 280" xml:space="preserve">
<g>
	<defs>
		<path id="XMLID_46_" d="M4,280c-2.2,0-4-1.799-4-4V4c0-2.199,1.8-4,4-4h272c2.2,0,4,1.801,4,4v272c0,2.201-1.8,4-4,4H4z"/>
	</defs>
	<clipPath id="XMLID_2_">
		<use xlink:href="#XMLID_46_"  overflow="visible"/>
	</clipPath>
	<g clip-path="url(#XMLID_2_)">
		<path fill="#BAEAA4" d="M226.217,113.771c0,22.521-18.256,40.78-40.78,40.78v40.782c45.039,0,81.563-36.52,81.563-81.563H226.217z
			"/>
		<path fill="#FFD230" d="M150.063,76.981c0,14.216,11.527,25.743,25.742,25.743V51.235
			C161.589,51.235,150.063,62.761,150.063,76.981z"/>
		<path fill="#F4DA82" d="M134.25,38.042c-13.932,0-25.221-11.292-25.221-25.222c0-13.935,11.289-25.223,25.221-25.223
			c13.932,0,25.224,11.288,25.224,25.223C159.474,26.75,148.182,38.042,134.25,38.042z"/>
		<path fill="#5DDB23" d="M55.5,95.674c0-10.984-8.906-19.891-19.891-19.891H15.717l0,0c0,10.987,8.906,19.891,19.892,19.891
			c0,10.984,8.907,19.893,19.891,19.893V95.674z"/>
		<path fill="#FBEBA1" d="M60.02,193.11c0-30.996-25.128-56.127-56.127-56.127c-30.998,0-56.124,25.131-56.124,56.127
			c0,30.997,25.126,56.128,56.124,56.128C34.891,249.238,60.02,224.107,60.02,193.11z M-18.555,193.11
			c0-12.399,10.054-22.45,22.447-22.45c12.399,0,22.45,10.051,22.45,22.45c0,12.396-10.051,22.45-22.45,22.45
			C-8.501,215.561-18.555,205.507-18.555,193.11z"/>
		<path fill="#F4DA82" d="M271.379,244.684c8.826,0,15.98,7.156,15.98,15.983h23.979c0-22.068-17.894-39.961-39.959-39.961
			c-22.068,0-39.96,17.893-39.96,39.961h23.977C255.396,251.84,262.55,244.684,271.379,244.684z"/>
		<path fill="#BAEAA4" d="M130,176.001V111H97.5v32.502l0,0C97.5,161.448,112.049,176.001,130,176.001z"/>
		<circle fill="#FFD230" cx="158" cy="252.001" r="11.475"/>
		<path fill="#5DDB23" d="M105.398,210.673c-11.813,0-21.39,9.575-21.39,21.389h21.39c11.811,0,21.388-9.576,21.388-21.389H105.398z
			"/>
		<path fill="#87DB60" d="M236,19.234L236,19.234c-13.56,0-24.552,10.989-24.552,24.547H236V19.234z"/>
	</g>
</g>
</svg>
