<?xml version="1.0" encoding="utf-8"?>
<!-- Generator: Adobe Illustrator 15.1.0, SVG Export Plug-In . SVG Version: 6.00 Build 0)  -->
<!DOCTYPE svg PUBLIC "-//W3C//DTD SVG 1.1//EN" "http://www.w3.org/Graphics/SVG/1.1/DTD/svg11.dtd">
<svg version="1.1" id="Layer_1" xmlns="http://www.w3.org/2000/svg" xmlns:xlink="http://www.w3.org/1999/xlink" x="0px" y="0px"
	 width="280px" height="280px" viewBox="0 0 280 280" enable-background="new 0 0 280 280" xml:space="preserve">
<g>
	<defs>
		<path id="XMLID_44_" d="M280,276c0,2.2-1.801,4-4,4H4c-2.201,0-4-1.8-4-4V4c0-2.2,1.799-4,4-4h272c2.199,0,4,1.8,4,4V276z"/>
	</defs>
	<clipPath id="XMLID_2_">
		<use xlink:href="#XMLID_44_"  overflow="visible"/>
	</clipPath>
	<g clip-path="url(#XMLID_2_)">
		<path fill="#87DB60" d="M142.965,48.063c14.378,0,26.034,11.655,26.034,26.034h26.035c0-28.753-23.313-52.068-52.068-52.068
			L142.965,48.063z"/>
		<path fill="#FFD230" d="M62.677,181.937c20.361,0,36.873-16.512,36.873-36.872H25.8C25.8,165.425,42.308,181.937,62.677,181.937z"
			/>
		<path fill="#F4DA82" d="M39.944,93.003c0,12.272-9.95,22.219-22.225,22.219c-12.275,0-22.22-9.947-22.22-22.219
			c0-12.277,9.944-22.226,22.22-22.226C29.994,70.777,39.944,80.726,39.944,93.003z"/>
		<path fill="#5DDB23" d="M135.998,169.739c-8.738,0-15.823,7.084-15.823,15.824v15.824l0,0c8.74,0,15.823-7.084,15.823-15.824
			c8.739,0,15.826-7.086,15.826-15.824H135.998z"/>
		<path fill="#FBEBA1" d="M153.91,217.539c-25.539,0-46.244,20.702-46.244,46.241c0,25.54,20.705,46.243,46.244,46.243
			s46.245-20.704,46.245-46.243C200.155,238.241,179.449,217.539,153.91,217.539z M153.91,282.275
			c-10.216,0-18.498-8.284-18.498-18.495c0-10.216,8.282-18.497,18.498-18.497c10.214,0,18.498,8.281,18.498,18.497
			C172.408,273.992,164.124,282.275,153.91,282.275z"/>
		<path fill="#F4DA82" d="M247.848,14.565c0-10.299,8.351-18.646,18.652-18.646v-27.98c-25.751,0-46.627,20.879-46.627,46.626
			c0,25.75,20.876,46.626,46.627,46.626V33.216C256.198,33.216,247.848,24.867,247.848,14.565z"/>
		<path fill="#BAEAA4" d="M260,172.723h-51.364v25.682h25.683l0,0C248.502,198.404,260,186.907,260,172.723z"/>
		<path fill="#FFD230" d="M250.042,113.203c0,10.465-8.479,18.942-18.94,18.942c-10.463,0-18.941-8.477-18.941-18.942
			c0-10.461,8.479-18.94,18.941-18.94C241.563,94.263,250.042,102.741,250.042,113.203z"/>
		<path fill="#5DDB23" d="M25.307,234.127c0,11.813,9.574,21.391,21.388,21.391v-21.391c0-11.811-9.575-21.387-21.388-21.387
			V234.127z"/>
		<path fill="#BAEAA4" d="M100.881,80.011L100.881,80.011c0,15.042,12.193,27.237,27.237,27.237V80.011H100.881z"/>
	</g>
</g>
</svg>
