<?xml version="1.0" encoding="utf-8"?>
<!-- Generator: Adobe Illustrator 15.1.0, SVG Export Plug-In . SVG Version: 6.00 Build 0)  -->
<!DOCTYPE svg PUBLIC "-//W3C//DTD SVG 1.1//EN" "http://www.w3.org/Graphics/SVG/1.1/DTD/svg11.dtd">
<svg version="1.1" id="Layer_1" xmlns="http://www.w3.org/2000/svg" xmlns:xlink="http://www.w3.org/1999/xlink" x="0px" y="0px"
	 width="18px" height="18px" viewBox="0 0 18 18" enable-background="new 0 0 18 18" xml:space="preserve">
<g>
	<g>
		<path fill="#B2B2B2" d="M7.018,2c2.768,0,5.019,2.251,5.019,5.019s-2.251,5.019-5.019,5.019C4.251,12.037,2,9.786,2,7.019
			S4.251,2,7.018,2 M7.018,0C3.142,0,0,3.141,0,7.019c0,3.877,3.142,7.019,7.018,7.019c3.876,0,7.019-3.142,7.019-7.019
			C14.037,3.141,10.894,0,7.018,0L7.018,0z"/>
	</g>
	<g>
		<path fill="#B2B2B2" d="M17,18c-0.256,0-0.512-0.098-0.707-0.293l-5.576-5.574c-0.391-0.391-0.391-1.024,0-1.415
			c0.39-0.39,1.023-0.391,1.414,0l5.576,5.575c0.391,0.391,0.391,1.024,0,1.414C17.512,17.902,17.256,18,17,18z"/>
	</g>
</g>
</svg>
