<?xml version="1.0" encoding="utf-8"?>
<!-- Generator: Adobe Illustrator 15.1.0, SVG Export Plug-In . SVG Version: 6.00 Build 0)  -->
<!DOCTYPE svg PUBLIC "-//W3C//DTD SVG 1.1//EN" "http://www.w3.org/Graphics/SVG/1.1/DTD/svg11.dtd">
<svg version="1.1" id="Layer_1" xmlns="http://www.w3.org/2000/svg" xmlns:xlink="http://www.w3.org/1999/xlink" x="0px" y="0px"
	 width="40px" height="40px" viewBox="0 0 40 40" enable-background="new 0 0 40 40" xml:space="preserve">
<g>
	<circle fill="#E57E25" cx="20" cy="20" r="20"/>
	<g>
		<g>
			<g>
				<path fill="#FFFFFF" d="M20,20.334c2.949,0,5.348-2.397,5.348-5.345c0-2.948-2.398-5.348-5.348-5.348
					c-2.948,0-5.346,2.398-5.346,5.348C14.654,17.937,17.052,20.334,20,20.334z M20,12.776c1.223,0,2.215,0.991,2.215,2.213
					c0,1.22-0.992,2.213-2.215,2.213c-1.219,0-2.213-0.993-2.213-2.213C17.787,13.769,18.781,12.776,20,12.776z"/>
				<path fill="#FFFFFF" d="M22.164,24.695c1.087-0.248,2.139-0.679,3.104-1.285c0.732-0.461,0.953-1.428,0.491-2.16
					c-0.461-0.733-1.428-0.954-2.159-0.492c-2.19,1.377-5.01,1.377-7.199,0c-0.734-0.462-1.7-0.241-2.16,0.492
					c-0.461,0.732-0.241,1.699,0.491,2.16c0.967,0.606,2.015,1.037,3.104,1.285l-2.989,2.989c-0.61,0.611-0.61,1.604,0,2.215
					c0.307,0.306,0.707,0.459,1.108,0.459c0.4,0,0.802-0.153,1.107-0.459l2.937-2.938l2.938,2.938c0.61,0.611,1.603,0.611,2.213,0
					c0.613-0.611,0.613-1.604,0-2.215L22.164,24.695z"/>
			</g>
		</g>
	</g>
</g>
</svg>
