<?xml version="1.0" encoding="utf-8"?>
<!-- Generator: Adobe Illustrator 15.1.0, SVG Export Plug-In . SVG Version: 6.00 Build 0)  -->
<!DOCTYPE svg PUBLIC "-//W3C//DTD SVG 1.1//EN" "http://www.w3.org/Graphics/SVG/1.1/DTD/svg11.dtd">
<svg version="1.1" id="Layer_1" xmlns="http://www.w3.org/2000/svg" xmlns:xlink="http://www.w3.org/1999/xlink" x="0px" y="0px"
	 width="40px" height="40px" viewBox="0 0 40 40" enable-background="new 0 0 40 40" xml:space="preserve">
<g>
	<circle fill="#DD5044" cx="20" cy="20" r="20"/>
	<g>
		<polygon fill="#FFFFFF" points="28.928,18.658 28.928,16.354 27.191,16.354 27.191,18.658 24.887,18.658 24.887,20.396 
			27.191,20.396 27.191,22.701 28.928,22.701 28.928,20.396 31.234,20.396 31.234,18.658 		"/>
		<path fill="#FFFFFF" d="M16.53,18.703v2.574h3.785c-0.411,1.678-1.993,2.625-3.665,2.625c-2.169,0-3.925-1.748-3.925-3.902
			s1.756-3.9,3.925-3.9c0.963,0,1.846,0.345,2.529,0.916l1.98-1.95c-1.191-1.076-2.773-1.73-4.51-1.73
			c-3.704,0-6.707,2.984-6.707,6.666s3.003,6.666,6.707,6.666c3.514,0,7.326-2.693,6.555-7.963L16.53,18.703L16.53,18.703z"/>
	</g>
</g>
</svg>
