<?xml version="1.0" encoding="utf-8"?>
<!-- Generator: Adobe Illustrator 15.1.0, SVG Export Plug-In . SVG Version: 6.00 Build 0)  -->
<!DOCTYPE svg PUBLIC "-//W3C//DTD SVG 1.1//EN" "http://www.w3.org/Graphics/SVG/1.1/DTD/svg11.dtd">
<svg version="1.1" id="Layer_1" xmlns="http://www.w3.org/2000/svg" xmlns:xlink="http://www.w3.org/1999/xlink" x="0px" y="0px"
	 width="40px" height="40px" viewBox="0 0 40 40" enable-background="new 0 0 40 40" xml:space="preserve">
<g>
	<circle fill="#4C75A3" cx="20" cy="20" r="20"/>
	<path fill="#FFFFFF" d="M15.737,20.082c0.26,0.486,0.535,0.927,0.727,1.152c0.471,0.548,0.81,0.51,0.81-0.081v-3.726
		c0-0.95-0.764-1.729-1.08-2.044c-0.315-0.314-0.272-0.988,0.316-0.988c0.588,0,3.603,0,4.044,0c0.28,0,0.478,0.229,0.478,0.478
		v4.791c0,0.44,0.384,0.606,1.079-0.438c0.875-1.32,2.539-3.667,3.05-4.438c0.146-0.218,0.392-0.391,0.708-0.391h3.393
		c0.275,0,0.447,0.323,0.309,0.536c-0.268,0.411-3.822,5.401-3.982,5.65c-0.229,0.354-0.129,0.467,0.117,0.742
		c1.223,1.374,3.896,4.271,4.07,4.478c0.216,0.257,0.008,0.594-0.269,0.594H25.65c-0.352,0-0.588-0.149-0.801-0.378
		c-0.504-0.538-1.834-1.94-2.799-2.968c-0.619-0.659-1.019-0.58-1.019-0.005v2.515c0,0.435-0.345,0.836-0.834,0.836h-1.436
		c-2.918,0-4.8-1.151-6.996-5.229c-0.5-0.928-3.193-5.899-3.383-6.26c-0.126-0.24,0.077-0.513,0.322-0.513h3.49
		c0.304,0,0.6,0.189,0.735,0.442C13.568,16.022,15.352,19.359,15.737,20.082"/>
</g>
</svg>
