<?xml version="1.0" encoding="utf-8"?>
<!-- Generator: Adobe Illustrator 15.1.0, SVG Export Plug-In . SVG Version: 6.00 Build 0)  -->
<!DOCTYPE svg PUBLIC "-//W3C//DTD SVG 1.1//EN" "http://www.w3.org/Graphics/SVG/1.1/DTD/svg11.dtd">
<svg version="1.1" id="Layer_1" xmlns="http://www.w3.org/2000/svg" xmlns:xlink="http://www.w3.org/1999/xlink" x="0px" y="0px"
	 width="18px" height="16px" viewBox="0 0 18 16" enable-background="new 0 0 18 16" xml:space="preserve">
<path fill="#CCCCCC" d="M17.721,2.591c-0.642,0.285-1.33,0.477-2.056,0.563c0.739-0.442,1.306-1.144,1.574-1.979
	c-0.692,0.41-1.458,0.709-2.273,0.87c-0.651-0.698-1.583-1.132-2.612-1.132c-1.976,0-3.578,1.604-3.578,3.579
	c0,0.279,0.032,0.554,0.093,0.813C5.895,5.157,3.258,3.732,1.493,1.567c-0.308,0.528-0.486,1.144-0.486,1.8
	c0,1.24,0.632,2.336,1.592,2.979c-0.585-0.02-1.138-0.18-1.62-0.447c0,0.014,0,0.028,0,0.044c0,1.734,1.233,3.18,2.871,3.51
	c-0.3,0.081-0.617,0.125-0.943,0.125c-0.23,0-0.456-0.022-0.673-0.064c0.456,1.421,1.777,2.456,3.342,2.485
	c-1.224,0.959-2.768,1.532-4.444,1.532c-0.289,0-0.573-0.019-0.853-0.052c1.583,1.016,3.464,1.609,5.485,1.609
	c6.581,0,10.179-5.454,10.179-10.183c0-0.155-0.001-0.309-0.009-0.462C16.635,3.938,17.24,3.309,17.721,2.591z"/>
</svg>
