<?xml version="1.0" encoding="utf-8"?>
<!-- Generator: Adobe Illustrator 15.1.0, SVG Export Plug-In . SVG Version: 6.00 Build 0)  -->
<!DOCTYPE svg PUBLIC "-//W3C//DTD SVG 1.1//EN" "http://www.w3.org/Graphics/SVG/1.1/DTD/svg11.dtd">
<svg version="1.1" id="Layer_1" xmlns="http://www.w3.org/2000/svg" xmlns:xlink="http://www.w3.org/1999/xlink" x="0px" y="0px"
	 width="62px" height="20px" viewBox="0 0 62 20" enable-background="new 0 0 62 20" xml:space="preserve">
<linearGradient id="SVGID_1_" gradientUnits="userSpaceOnUse" x1="0" y1="10" x2="61.9307" y2="10">
	<stop  offset="0" style="stop-color:#241F5D"/>
	<stop  offset="1" style="stop-color:#034EA1"/>
</linearGradient>
<path fill="url(#SVGID_1_)" d="M23.513,0.354l-8.107,19.344h-5.289L6.126,4.261C5.884,3.31,5.673,2.96,4.937,2.561
	C3.733,1.907,1.747,1.295,0,0.914l0.118-0.561h8.516c1.084,0,2.061,0.722,2.307,1.972l2.107,11.194l5.209-13.166H23.513z
	 M44.239,13.382c0.023-5.104-7.059-5.388-7.01-7.668c0.016-0.694,0.676-1.433,2.123-1.619C40.067,4,42.045,3.928,44.286,4.959
	l0.879-4.102C43.96,0.42,42.411,0,40.482,0c-4.946,0-8.428,2.63-8.455,6.394c-0.034,2.786,2.484,4.34,4.382,5.266
	c1.948,0.947,2.602,1.556,2.595,2.403c-0.015,1.299-1.555,1.871-2.995,1.894c-2.516,0.039-3.977-0.682-5.14-1.225l-0.906,4.242
	c1.169,0.535,3.327,1.004,5.564,1.026C40.785,20,44.224,17.404,44.239,13.382 M57.302,19.697h4.629l-4.04-19.344h-4.271
	c-0.962,0-1.771,0.559-2.13,1.419l-7.51,17.925h5.254l1.044-2.889h6.42L57.302,19.697z M51.718,12.844l2.635-7.263l1.516,7.263
	H51.718z M30.664,0.354l-4.139,19.344h-5.005l4.141-19.344H30.664z"/>
</svg>
