<?xml version="1.0" encoding="utf-8"?>
<!-- Generator: Adobe Illustrator 15.1.0, SVG Export Plug-In . SVG Version: 6.00 Build 0)  -->
<!DOCTYPE svg PUBLIC "-//W3C//DTD SVG 1.1//EN" "http://www.w3.org/Graphics/SVG/1.1/DTD/svg11.dtd">
<svg version="1.1" id="Layer_1" xmlns="http://www.w3.org/2000/svg" xmlns:xlink="http://www.w3.org/1999/xlink" x="0px" y="0px"
	 width="24px" height="14px" viewBox="0 0 24 14" enable-background="new 0 0 24 14" xml:space="preserve">
<g>
	<g>
		<path fill="#999999" d="M8.403,6.662c0.277,0.521,0.57,0.993,0.776,1.232c0.502,0.586,0.865,0.547,0.865-0.086V3.829
			c0-1.017-0.816-1.848-1.154-2.186C8.553,1.307,8.598,0.588,9.228,0.588c0.629,0,3.85,0,4.322,0c0.3,0,0.509,0.244,0.509,0.51v5.12
			c0,0.472,0.412,0.649,1.153-0.47c0.937-1.411,2.715-3.919,3.261-4.742c0.155-0.233,0.418-0.418,0.758-0.418h3.625
			c0.295,0,0.479,0.347,0.33,0.574C22.9,1.6,19.102,6.933,18.93,7.201c-0.244,0.378-0.139,0.498,0.125,0.792
			c1.305,1.469,4.166,4.563,4.35,4.786c0.23,0.273,0.008,0.633-0.286,0.633h-4.122c-0.375,0-0.629-0.158-0.855-0.402
			c-0.539-0.574-1.959-2.074-2.992-3.172c-0.662-0.704-1.088-0.62-1.088-0.006v2.688c0,0.463-0.367,0.893-0.893,0.893h-1.535
			c-3.117,0-5.129-1.23-7.477-5.588C3.622,6.833,0.744,1.52,0.542,1.135C0.406,0.878,0.624,0.588,0.886,0.588h3.728
			c0.327,0,0.642,0.202,0.788,0.473C6.084,2.326,7.991,5.892,8.403,6.662"/>
	</g>
</g>
</svg>
